<?xml version="1.0" encoding="utf-8"?>
<!-- Generator: Adobe Illustrator 27.5.0, SVG Export Plug-In . SVG Version: 6.00 Build 0)  -->
<svg version="1.1" xmlns="http://www.w3.org/2000/svg" xmlns:xlink="http://www.w3.org/1999/xlink" x="0px" y="0px"
	 viewBox="0 0 500 500" style="enable-background:new 0 0 500 500;" xml:space="preserve">
<g id="BACKGROUND">
	<g>
		<path style="fill:#C3E4E6;" d="M146.188,91.702C64.934,55.604-39.338,138.429,68.29,266.65
			c68.704,81.85-57.326,123.519-57.326,233.392h423.603c0,0,90.096-107.757,23.096-190.195
			c-85.447-105.136,42.184-150.186-13-218.774c-42.05-52.264-108.692,18.289-148.333-15.155
			C224.6,15.402,213.78,121.73,146.188,91.702z"/>
		<g>
			<circle style="fill:#FFFFFF;" cx="87.1" cy="204.942" r="3"/>
			<circle style="fill:#FFFFFF;" cx="151.333" cy="122.338" r="3"/>
			<circle style="fill:#FFFFFF;" cx="72.6" cy="153.556" r="3"/>
			<circle style="fill:#FFFFFF;" cx="60.391" cy="168.903" r="3"/>
			<circle style="fill:#FFFFFF;" cx="85.162" cy="139.088" r="1.938"/>
			<circle style="fill:#FFFFFF;" cx="104.87" cy="155.493" r="1.937"/>
			<circle style="fill:#FFFFFF;" cx="93.266" cy="176.887" r="1.938"/>
			<circle style="fill:#FFFFFF;" cx="113.74" cy="123.734" r="1.938"/>
			<circle style="fill:#FFFFFF;" cx="65.433" cy="190.005" r="1.938"/>
			<path style="fill:#FFFFFF;" d="M78.391,131.338c0,0.771-0.625,1.396-1.396,1.396c-0.771,0-1.396-0.625-1.396-1.396
				c0-0.771,0.625-1.396,1.396-1.396C77.766,129.942,78.391,130.567,78.391,131.338z"/>
			<path style="fill:#FFFFFF;" d="M60.391,134.9c0,0.771-0.625,1.396-1.396,1.396c-0.771,0-1.396-0.625-1.396-1.396
				s0.625-1.396,1.396-1.396C59.766,133.505,60.391,134.13,60.391,134.9z"/>
			<circle style="fill:#FFFFFF;" cx="81.829" cy="117.963" r="1.396"/>
			<path style="fill:#FFFFFF;" d="M70.995,119.359c0,0.771-0.625,1.396-1.396,1.396c-0.771,0-1.396-0.625-1.396-1.396
				s0.625-1.396,1.396-1.396C70.37,117.963,70.995,118.588,70.995,119.359z"/>
			<path style="fill:#FFFFFF;" d="M97.454,112.942c0,0.771-0.625,1.396-1.396,1.396c-0.771,0-1.396-0.625-1.396-1.396
				c0-0.771,0.625-1.396,1.396-1.396C96.829,111.546,97.454,112.171,97.454,112.942z"/>
			<path style="fill:#FFFFFF;" d="M100.245,102.005c0,0.771-0.625,1.396-1.396,1.396c-0.771,0-1.396-0.625-1.396-1.396
				c0-0.771,0.625-1.396,1.396-1.396C99.62,100.609,100.245,101.234,100.245,102.005z"/>
			<path style="fill:#FFFFFF;" d="M131.209,122.338c0,0.771-0.625,1.396-1.396,1.396s-1.396-0.625-1.396-1.396
				s0.625-1.396,1.396-1.396S131.209,121.567,131.209,122.338z"/>
			<circle style="fill:#FFFFFF;" cx="66.829" cy="141.713" r="1.396"/>
			<path style="fill:#FFFFFF;" d="M94.662,136.296c0,0.771-0.625,1.396-1.396,1.396c-0.771,0-1.396-0.625-1.396-1.396
				s0.625-1.396,1.396-1.396C94.037,134.9,94.662,135.525,94.662,136.296z"/>
			<circle style="fill:#FFFFFF;" cx="106.266" cy="141.713" r="1.396"/>
			<path style="fill:#FFFFFF;" d="M121.371,105.005c0,0.771-0.625,1.396-1.396,1.396s-1.396-0.625-1.396-1.396
				c0-0.771,0.625-1.396,1.396-1.396S121.371,104.234,121.371,105.005z"/>
			<path style="fill:#FFFFFF;" d="M86.558,158.559c0,0.771-0.625,1.396-1.396,1.396c-0.771,0-1.396-0.625-1.396-1.396
				s0.625-1.396,1.396-1.396C85.933,157.163,86.558,157.788,86.558,158.559z"/>
			<path style="fill:#FFFFFF;" d="M41.704,173.027c0,0.771-0.625,1.396-1.396,1.396s-1.396-0.625-1.396-1.396
				c0-0.771,0.625-1.396,1.396-1.396S41.704,172.256,41.704,173.027z"/>
			<circle style="fill:#FFFFFF;" cx="446.266" cy="312.283" r="3"/>
			<circle style="fill:#FFFFFF;" cx="418.893" cy="194.942" r="3"/>
			<circle style="fill:#FFFFFF;" cx="369.587" cy="392.093" r="3"/>
			
				<ellipse transform="matrix(0.1606 -0.987 0.987 0.1606 7.4142 727.1182)" style="fill:#FFFFFF;" cx="431.184" cy="359.2" rx="3" ry="3"/>
			<circle style="fill:#FFFFFF;" cx="143.668" cy="150.148" r="3"/>
			<circle style="fill:#FFFFFF;" cx="418.893" cy="321.637" r="1.938"/>
			<circle style="fill:#FFFFFF;" cx="431.184" cy="336.105" r="1.938"/>
			<circle style="fill:#FFFFFF;" cx="410.726" cy="313.887" r="1.396"/>
			<circle style="fill:#FFFFFF;" cx="392.726" cy="317.449" r="1.396"/>
			<path style="fill:#FFFFFF;" d="M420.288,294.299c0,0.771-0.625,1.396-1.396,1.396s-1.396-0.625-1.396-1.396
				s0.625-1.396,1.396-1.396S420.288,293.528,420.288,294.299z"/>
			<path style="fill:#FFFFFF;" d="M404.726,301.908c0,0.771-0.625,1.396-1.396,1.396s-1.396-0.625-1.396-1.396
				c0-0.771,0.625-1.396,1.396-1.396S404.726,301.137,404.726,301.908z"/>
			<path style="fill:#FFFFFF;" d="M431.184,295.491c0,0.771-0.625,1.396-1.396,1.396s-1.396-0.625-1.396-1.396
				s0.625-1.396,1.396-1.396S431.184,294.72,431.184,295.491z"/>
			<path style="fill:#FFFFFF;" d="M407.726,276.147c0,0.771-0.625,1.396-1.396,1.396s-1.396-0.625-1.396-1.396
				s0.625-1.396,1.396-1.396S407.726,275.376,407.726,276.147z"/>
			<path style="fill:#FFFFFF;" d="M423.882,278.28c0,0.771-0.625,1.396-1.396,1.396s-1.396-0.625-1.396-1.396
				s0.625-1.396,1.396-1.396S423.882,277.509,423.882,278.28z"/>
			<path style="fill:#FFFFFF;" d="M392.119,330.309c0,0.771-0.625,1.396-1.396,1.396c-0.771,0-1.396-0.625-1.396-1.396
				s0.625-1.396,1.396-1.396C391.494,328.913,392.119,329.538,392.119,330.309z"/>
			<path style="fill:#FFFFFF;" d="M428.393,318.845c0,0.771-0.625,1.396-1.396,1.396s-1.396-0.625-1.396-1.396
				c0-0.771,0.625-1.396,1.396-1.396S428.393,318.074,428.393,318.845z"/>
			<path style="fill:#FFFFFF;" d="M452.058,331.705c0,0.771-0.625,1.396-1.396,1.396c-0.771,0-1.396-0.625-1.396-1.396
				s0.625-1.396,1.396-1.396C451.433,330.309,452.058,330.934,452.058,331.705z"/>
			<path style="fill:#FFFFFF;" d="M420.288,341.108c0,0.771-0.625,1.396-1.396,1.396s-1.396-0.625-1.396-1.396
				s0.625-1.396,1.396-1.396S420.288,340.337,420.288,341.108z"/>
			<path style="fill:#FFFFFF;" d="M137.209,200.338c0,0.771-0.625,1.396-1.396,1.396c-0.771,0-1.396-0.625-1.396-1.396
				c0-0.771,0.625-1.396,1.396-1.396C136.584,198.942,137.209,199.567,137.209,200.338z"/>
			<path style="fill:#FFFFFF;" d="M390.723,385.324c0,0.771-0.625,1.396-1.396,1.396c-0.771,0-1.396-0.625-1.396-1.396
				s0.625-1.396,1.396-1.396C390.098,383.928,390.723,384.553,390.723,385.324z"/>
		</g>
	</g>
</g>
<g id="OBJECTS">
	<path style="fill:#A5D4D6;" d="M437.783,393.436c0,8.167-73.767,14.787-164.763,14.787s-164.763-6.621-164.763-14.787
		c0-8.167,73.767-14.787,164.763-14.787S437.783,385.27,437.783,393.436z"/>
	<g>
		<g>
			<path style="fill:#ED983B;" d="M197.883,305.019c9.376,0.25,18.167,0.364,19.573,9.852c1.406,9.488,1.822,14.232-2.006,14.232
				c-3.829,0-7.979-7.74-7.979-7.74s-6.495-0.869-9.588-1.261V305.019z"/>
		</g>
		<path style="fill:#ED983B;" d="M167.577,342.49c5.375-7.99,5.278-24.292,1.616-42.365c-1.577-7.782-3.834-12.625-5.894-15.623
			c-0.048-0.004-0.095-0.007-0.144-0.011c-0.039-0.003-0.077-0.006-0.115-0.009c-0.217-0.018-0.436-0.039-0.657-0.062c0,0,0,0,0,0
			c-0.006-0.002-0.011-0.005-0.017-0.007c-1.499-1.186-2.318-2.991-4.622-4.637c-0.501-0.358-1.647-1.235-2.246-1.644
			c0,0-2.082,2.849-2.739,4.164c-1.607,3.215-2.486,5.311-3.068,6.849c-0.767,2.027-4.341,17.068,0.922,28.054
			c1.316,2.747,3.462,4.352,3.406,5.987c-0.139,4,2.788,6.985-5.168,21.301c-3.328,5.989-6.82,11.744-8.378,17.267
			c-2.165,7.678-0.585,14.907,10.437,21.685c0,0,10.832,2.425,23.033,2.386c-0.708-2.95-0.854-6.854,0.088-12.04
			C177.538,354.475,162.201,350.48,167.577,342.49z"/>
		<g>
			<path style="fill:#ED983B;" d="M202.911,343.575c5.029,11.024,9.963,26.788-3.574,36.202c-1.336,0.929-2.799,1.717-4.346,2.399
				c9.153,0.735,13.105-3.731,13.105-3.731s6.706-5.66,9.208-16.646C219.804,350.813,202.911,343.575,202.911,343.575z"/>
			<path style="fill:#FCF5ED;" d="M202.911,343.575c-0.84-1.841-1.683-3.555-2.442-5.08c-5.309-10.653,1.935-21.343-0.313-30.997
				c-2.247-9.655-4.959-16.322-4.959-16.322l-2.686-4.339c-1.793,1.369,0.948-2.132-1.847-1.371
				c-0.929,0.253-1.921,0.504-2.995,0.773c-7.99,1.997-18.477-1.748-18.477-1.748s-0.013,0.001-0.032,0.003
				c-0.004,0-0.013,0.001-0.018,0.002c-0.021,0.002-0.048,0.004-0.082,0.007c-0.01,0.001-0.024,0.002-0.035,0.003
				c-0.035,0.003-0.076,0.006-0.121,0.01c-0.019,0.001-0.04,0.003-0.061,0.005c-0.049,0.004-0.102,0.007-0.16,0.011
				c-0.024,0.002-0.049,0.003-0.074,0.005c-0.063,0.004-0.133,0.008-0.205,0.013c-0.027,0.002-0.055,0.003-0.083,0.005
				c-0.081,0.005-0.167,0.009-0.258,0.013c-0.026,0.001-0.051,0.003-0.077,0.004c-0.11,0.005-0.226,0.01-0.348,0.014
				c-0.012,0-0.022,0.001-0.034,0.001c-0.416,0.015-0.9,0.025-1.438,0.025c-0.018,0-0.037,0-0.055,0
				c-0.157,0-0.318-0.001-0.484-0.004c-0.035,0-0.07-0.001-0.105-0.002c-0.151-0.003-0.306-0.006-0.463-0.01
				c-0.045-0.001-0.091-0.003-0.137-0.004c-0.152-0.005-0.307-0.011-0.463-0.018c-0.049-0.002-0.098-0.004-0.148-0.007
				c-0.159-0.008-0.32-0.017-0.484-0.027c-0.049-0.003-0.097-0.006-0.146-0.009c-0.126-0.008-0.255-0.018-0.384-0.028
				c2.06,2.998,4.317,7.842,5.894,15.623c3.662,18.073,3.76,34.375-1.616,42.365c-5.376,7.99,9.961,11.985,6.454,31.294
				c-0.942,5.186-0.797,9.09-0.088,12.04c7.188-0.023,14.841-0.909,21.048-3.648c1.546-0.682,3.01-1.471,4.346-2.399
				C212.874,370.363,207.94,354.599,202.911,343.575z"/>
		</g>
		<linearGradient id="SVGID_1_" gradientUnits="userSpaceOnUse" x1="174.5775" y1="327.2911" x2="172.5117" y2="320.6617">
			<stop  offset="0" style="stop-color:#00192A"/>
			<stop  offset="0.2981" style="stop-color:#28233C"/>
			<stop  offset="0.5857" style="stop-color:#462B4A"/>
			<stop  offset="0.8295" style="stop-color:#593052"/>
			<stop  offset="1" style="stop-color:#603255"/>
		</linearGradient>
		<path style="fill:none;stroke:url(#SVGID_1_);stroke-linecap:round;stroke-miterlimit:10;" d="M174.031,326.938
			c0,0-1.197-2.913-0.937-5.909"/>
		<path style="fill:#B57733;" d="M140.472,361.754c-0.53-0.397-0.84-0.621-0.84-0.621s-6.728-4.994-10.723,0
			c-3.995,4.994,3.716,23.304,22,22.305C139.887,376.662,138.307,369.433,140.472,361.754z"/>
		<g>
			<path style="fill:#FCF5ED;" d="M172.142,277.394c4.614,2.871,17.535,3.999,20.002,3.589c2.467-0.41,5.634-3.589,5.634-3.589
				c0.82,0.923,3.999,1.333,3.999,1.333s2.461-0.544,2.256-4.886c-0.205-4.343-6.768-6.804-6.768-6.804l-5.811-1.162
				c0,0-5.061-16.566-13.315-22.482c-1.222-0.051-2.618-0.067-3.952,0.015c-0.006,0-0.012,0.001-0.019,0.001
				c-0.325,0.02-0.645,0.046-0.959,0.079c-0.012,0.001-0.025,0.003-0.036,0.004c-0.311,0.033-0.615,0.073-0.908,0.12
				c-0.012,0.002-0.023,0.004-0.035,0.006c-0.294,0.048-0.577,0.104-0.846,0.168c-0.007,0.002-0.014,0.003-0.02,0.005
				c-0.272,0.066-0.531,0.14-0.769,0.224c0,0,0,0,0,0c0.044-0.007,4.33-0.677,7.186,3.812c2.871,4.512,9.389,13.262,8.865,19.005
				c0,0-10.095,10.664-24.998,8.887c0,0-5.035,6.038,7.258,10.949c0,0,0,0,0,0c0.182,0.019,0.362,0.035,0.54,0.051
				c0.032,0.003,0.063,0.005,0.095,0.007c0.146,0.012,0.291,0.023,0.434,0.032c0.04,0.003,0.08,0.005,0.12,0.007
				c0.134,0.008,0.267,0.016,0.397,0.022c0.041,0.002,0.081,0.004,0.121,0.006c0.129,0.006,0.256,0.011,0.381,0.014
				c0.038,0.001,0.075,0.003,0.112,0.004c0.129,0.004,0.256,0.006,0.38,0.009c0.029,0,0.058,0.001,0.086,0.001
				c0.136,0.002,0.268,0.003,0.397,0.003c0.015,0,0.03,0,0.045,0c0.441,0,0.839-0.008,1.181-0.021c0.01,0,0.018-0.001,0.028-0.001
				c0.1-0.004,0.196-0.008,0.286-0.012c0.022-0.001,0.042-0.002,0.063-0.003c0.074-0.004,0.146-0.007,0.212-0.011
				c0.023-0.001,0.046-0.003,0.068-0.004c0.06-0.004,0.117-0.007,0.169-0.01c0.021-0.001,0.042-0.003,0.061-0.004
				c0.048-0.003,0.091-0.006,0.131-0.009c0.017-0.001,0.035-0.003,0.05-0.004c0.038-0.003,0.071-0.005,0.1-0.008
				c0.009-0.001,0.02-0.002,0.029-0.002c0.029-0.002,0.051-0.004,0.068-0.006c0.004,0,0.011-0.001,0.014-0.001
				c0.015-0.001,0.026-0.003,0.026-0.003s8.614,3.076,15.176,1.436c0.882-0.221,1.697-0.427,2.46-0.635
				c-3.908-1.276-10.152-3.397-13.637-5.005C173.167,280.06,172.142,277.394,172.142,277.394z"/>
			<path style="fill:#FCF5ED;" d="M201.731,278.721c-0.01-0.001-0.018-0.003-0.034-0.005c-0.001,0-0.002,0-0.002,0
				c-0.034-0.005-0.077-0.011-0.13-0.019c-0.01-0.002-0.019-0.003-0.031-0.005c-0.001,0-0.001,0-0.002,0
				c-0.132-0.02-0.306-0.049-0.517-0.088c-0.223-0.041-0.482-0.094-0.753-0.156c-0.024-0.005-0.047-0.011-0.071-0.016c0,0,0,0,0,0
				c-0.088-0.021-0.176-0.042-0.265-0.065c-0.001,0-0.001,0-0.002,0c-0.043-0.011-0.084-0.021-0.127-0.033c0,0,0,0,0,0
				c-0.131-0.035-0.262-0.071-0.392-0.111c0,0-1.219,6.608-10.556,8.211l3.29,1.094c4.914-1.338,7.51-2.764,9.64-8.799
				C201.777,278.727,201.759,278.724,201.731,278.721z"/>
			<path style="fill:#ED983B;" d="M168.906,286.668c-12.293-4.911-7.258-10.949-7.258-10.949
				c14.903,1.777,24.998-8.887,24.998-8.887c0.524-5.742-5.993-14.493-8.865-19.005c-2.857-4.489-7.143-3.819-7.186-3.812
				c-0.621,0.22-1.12,0.504-1.427,0.873c-5.947-1.641-20.919-7.793-20.919-7.793c-4.318,5.597,3.833,16.678,7.633,21.29
				c-0.152,0.22-0.303,0.427-0.455,0.655l-7.178,16.612c0,0,9.434,5.742,13.741,8.819c2.04,1.457,4.954,2.04,7.456,2.249
				C169.268,286.704,169.088,286.687,168.906,286.668C168.907,286.668,168.906,286.668,168.906,286.668z"/>
			
				<linearGradient id="SVGID_00000078023128663371036700000000812968546945270693_" gradientUnits="userSpaceOnUse" x1="150.1157" y1="248.5796" x2="165.4672" y2="248.5796">
				<stop  offset="0" style="stop-color:#9D5933"/>
				<stop  offset="0.9811" style="stop-color:#B57733"/>
			</linearGradient>
			<path style="fill:url(#SVGID_00000078023128663371036700000000812968546945270693_);" d="M165.467,248.148
				c-6.044-2.287-14.484-7.704-14.484-7.704c-2.95,3.825,2.258,11.518,6.104,16.271
				C160.695,251.945,163.026,250.142,165.467,248.148z"/>
			<path style="fill:#ED983B;" d="M195.624,253.706c0.203,0.323,0.384,0.654,0.553,0.99c0-0.001,0.001-0.001,0.002-0.001
				c1.99-2.156,2.795-7.415,3.069-14.251c0.273-6.836-3.965-7.11-3.965-7.11c-7.246,7.93-13.604,10.323-13.604,10.323
				S192.137,248.169,195.624,253.706z"/>
			
				<linearGradient id="SVGID_00000168836256397320769530000013354124531670252961_" gradientUnits="userSpaceOnUse" x1="185.0281" y1="245.0389" x2="199.2595" y2="245.0389">
				<stop  offset="0" style="stop-color:#9D5933"/>
				<stop  offset="0.9811" style="stop-color:#B57733"/>
			</linearGradient>
			<path style="fill:url(#SVGID_00000168836256397320769530000013354124531670252961_);" d="M195.624,253.706
				c0.203,0.323,0.384,0.654,0.553,0.99c0-0.001,0.001-0.001,0.002-0.001c1.99-2.156,2.795-7.415,3.069-14.251
				c0.064-1.594-0.124-2.82-0.44-3.78c-1.085-1.189-2.293-1.283-2.293-1.283c-4.708,5.497-9.028,8.49-11.486,9.92
				C188.402,247.098,193.413,250.195,195.624,253.706z"/>
			
				<linearGradient id="SVGID_00000151530943607556275550000009758001985531003280_" gradientUnits="userSpaceOnUse" x1="206.5395" y1="404.7868" x2="135.21" y2="175.8853">
				<stop  offset="0" style="stop-color:#00192A"/>
				<stop  offset="0.2981" style="stop-color:#28233C"/>
				<stop  offset="0.5857" style="stop-color:#462B4A"/>
				<stop  offset="0.8295" style="stop-color:#593052"/>
				<stop  offset="1" style="stop-color:#603255"/>
			</linearGradient>
			
				<path style="fill:none;stroke:url(#SVGID_00000151530943607556275550000009758001985531003280_);stroke-width:0.8214;stroke-linecap:round;stroke-miterlimit:10;" d="
				M169.975,286.758c-0.143-0.009-0.288-0.02-0.434-0.032C169.687,286.738,169.832,286.749,169.975,286.758z"/>
			
				<linearGradient id="SVGID_00000176756732693367791150000006916511976958866319_" gradientUnits="userSpaceOnUse" x1="207.0206" y1="404.6448" x2="135.6866" y2="175.7289">
				<stop  offset="0" style="stop-color:#00192A"/>
				<stop  offset="0.2981" style="stop-color:#28233C"/>
				<stop  offset="0.5857" style="stop-color:#462B4A"/>
				<stop  offset="0.8295" style="stop-color:#593052"/>
				<stop  offset="1" style="stop-color:#603255"/>
			</linearGradient>
			
				<path style="fill:none;stroke:url(#SVGID_00000176756732693367791150000006916511976958866319_);stroke-width:0.8214;stroke-linecap:round;stroke-miterlimit:10;" d="
				M170.492,286.787c-0.131-0.006-0.263-0.014-0.397-0.022C170.229,286.773,170.361,286.781,170.492,286.787z"/>
			
				<linearGradient id="SVGID_00000028287055565542398290000017784673677219216283_" gradientUnits="userSpaceOnUse" x1="210.3428" y1="403.6014" x2="139.0127" y2="174.6979">
				<stop  offset="0" style="stop-color:#00192A"/>
				<stop  offset="0.2981" style="stop-color:#28233C"/>
				<stop  offset="0.5857" style="stop-color:#462B4A"/>
				<stop  offset="0.8295" style="stop-color:#593052"/>
				<stop  offset="1" style="stop-color:#603255"/>
			</linearGradient>
			
				<path style="fill:none;stroke:url(#SVGID_00000028287055565542398290000017784673677219216283_);stroke-width:0.8214;stroke-linecap:round;stroke-miterlimit:10;" d="
				M174.021,286.762c-0.052,0.003-0.109,0.007-0.169,0.01C173.913,286.769,173.969,286.766,174.021,286.762z"/>
			
				<linearGradient id="SVGID_00000113315324879023498550000009809673093762358412_" gradientUnits="userSpaceOnUse" x1="209.8232" y1="403.7967" x2="138.4747" y2="174.8341">
				<stop  offset="0" style="stop-color:#00192A"/>
				<stop  offset="0.2981" style="stop-color:#28233C"/>
				<stop  offset="0.5857" style="stop-color:#462B4A"/>
				<stop  offset="0.8295" style="stop-color:#593052"/>
				<stop  offset="1" style="stop-color:#603255"/>
			</linearGradient>
			
				<path style="fill:none;stroke:url(#SVGID_00000113315324879023498550000009809673093762358412_);stroke-width:0.8214;stroke-linecap:round;stroke-miterlimit:10;" d="
				M173.509,286.791c-0.09,0.004-0.186,0.008-0.286,0.012C173.324,286.799,173.419,286.795,173.509,286.791z"/>
			
				<linearGradient id="SVGID_00000008828721690174513310000017698321053316964774_" gradientUnits="userSpaceOnUse" x1="210.1105" y1="403.7002" x2="138.7658" y2="174.7499">
				<stop  offset="0" style="stop-color:#00192A"/>
				<stop  offset="0.2981" style="stop-color:#28233C"/>
				<stop  offset="0.5857" style="stop-color:#462B4A"/>
				<stop  offset="0.8295" style="stop-color:#593052"/>
				<stop  offset="1" style="stop-color:#603255"/>
			</linearGradient>
			
				<path style="fill:none;stroke:url(#SVGID_00000008828721690174513310000017698321053316964774_);stroke-width:0.8214;stroke-linecap:round;stroke-miterlimit:10;" d="
				M173.784,286.777c-0.066,0.004-0.138,0.007-0.212,0.011C173.647,286.784,173.718,286.78,173.784,286.777z"/>
			
				<linearGradient id="SVGID_00000034062542112610547090000009779088501372757182_" gradientUnits="userSpaceOnUse" x1="209.1062" y1="403.9716" x2="137.7847" y2="175.0957">
				<stop  offset="0" style="stop-color:#00192A"/>
				<stop  offset="0.2981" style="stop-color:#28233C"/>
				<stop  offset="0.5857" style="stop-color:#462B4A"/>
				<stop  offset="0.8295" style="stop-color:#593052"/>
				<stop  offset="1" style="stop-color:#603255"/>
			</linearGradient>
			
				<path style="fill:none;stroke:url(#SVGID_00000034062542112610547090000009779088501372757182_);stroke-width:0.8214;stroke-linecap:round;stroke-miterlimit:10;" d="
				M173.196,286.804c-0.342,0.012-0.74,0.021-1.181,0.021C172.456,286.824,172.854,286.816,173.196,286.804z"/>
			
				<linearGradient id="SVGID_00000181797933201373636710000005932491751700485766_" gradientUnits="userSpaceOnUse" x1="210.5411" y1="403.5463" x2="139.2073" y2="174.6307">
				<stop  offset="0" style="stop-color:#00192A"/>
				<stop  offset="0.2981" style="stop-color:#28233C"/>
				<stop  offset="0.5857" style="stop-color:#462B4A"/>
				<stop  offset="0.8295" style="stop-color:#593052"/>
				<stop  offset="1" style="stop-color:#603255"/>
			</linearGradient>
			
				<path style="fill:none;stroke:url(#SVGID_00000181797933201373636710000005932491751700485766_);stroke-width:0.8214;stroke-linecap:round;stroke-miterlimit:10;" d="
				M174.213,286.749c-0.04,0.003-0.084,0.006-0.131,0.009C174.13,286.755,174.173,286.752,174.213,286.749z"/>
			
				<linearGradient id="SVGID_00000016048690006269179060000000294573506484071063_" gradientUnits="userSpaceOnUse" x1="208.3573" y1="404.2361" x2="137.0187" y2="175.3055">
				<stop  offset="0" style="stop-color:#00192A"/>
				<stop  offset="0.2981" style="stop-color:#28233C"/>
				<stop  offset="0.5857" style="stop-color:#462B4A"/>
				<stop  offset="0.8295" style="stop-color:#593052"/>
				<stop  offset="1" style="stop-color:#603255"/>
			</linearGradient>
			
				<path style="fill:none;stroke:url(#SVGID_00000016048690006269179060000000294573506484071063_);stroke-width:0.8214;stroke-linecap:round;stroke-miterlimit:10;" d="
				M171.97,286.824c-0.129,0-0.261-0.001-0.397-0.003C171.709,286.823,171.841,286.824,171.97,286.824z"/>
			
				<linearGradient id="SVGID_00000114777145443166756890000008671601390918686904_" gradientUnits="userSpaceOnUse" x1="207.9228" y1="404.3577" x2="136.5919" y2="175.4516">
				<stop  offset="0" style="stop-color:#00192A"/>
				<stop  offset="0.2981" style="stop-color:#28233C"/>
				<stop  offset="0.5857" style="stop-color:#462B4A"/>
				<stop  offset="0.8295" style="stop-color:#593052"/>
				<stop  offset="1" style="stop-color:#603255"/>
			</linearGradient>
			
				<path style="fill:none;stroke:url(#SVGID_00000114777145443166756890000008671601390918686904_);stroke-width:0.8214;stroke-linecap:round;stroke-miterlimit:10;" d="
				M171.487,286.819c-0.124-0.002-0.251-0.005-0.38-0.009C171.236,286.814,171.362,286.817,171.487,286.819z"/>
			
				<linearGradient id="SVGID_00000183244525474583362790000011820510981762598548_" gradientUnits="userSpaceOnUse" x1="207.4822" y1="404.5121" x2="136.1419" y2="175.5761">
				<stop  offset="0" style="stop-color:#00192A"/>
				<stop  offset="0.2981" style="stop-color:#28233C"/>
				<stop  offset="0.5857" style="stop-color:#462B4A"/>
				<stop  offset="0.8295" style="stop-color:#593052"/>
				<stop  offset="1" style="stop-color:#603255"/>
			</linearGradient>
			
				<path style="fill:none;stroke:url(#SVGID_00000183244525474583362790000011820510981762598548_);stroke-width:0.8214;stroke-linecap:round;stroke-miterlimit:10;" d="
				M170.994,286.807c-0.125-0.004-0.252-0.009-0.381-0.014C170.742,286.798,170.869,286.803,170.994,286.807z"/>
			<path style="fill:#ED983B;" d="M178.139,243.393c8.254,5.916,13.315,22.482,13.315,22.482l5.811,1.162
				c0,0,1.633-6.91-1.088-12.34c-0.168-0.336-0.35-0.668-0.553-0.99c-3.486-5.537-13.946-10.049-13.946-10.049
				s-3.964-0.465-7.491-0.249C175.521,243.326,176.917,243.341,178.139,243.393z"/>
			
				<linearGradient id="SVGID_00000157309703865326962660000002625295045456657335_" gradientUnits="userSpaceOnUse" x1="210.8899" y1="403.5484" x2="139.4943" y2="174.4349">
				<stop  offset="0" style="stop-color:#00192A"/>
				<stop  offset="0.2981" style="stop-color:#28233C"/>
				<stop  offset="0.5857" style="stop-color:#462B4A"/>
				<stop  offset="0.8295" style="stop-color:#593052"/>
				<stop  offset="1" style="stop-color:#603255"/>
			</linearGradient>
			
				<path style="fill:none;stroke:url(#SVGID_00000157309703865326962660000002625295045456657335_);stroke-width:0.8214;stroke-linecap:round;stroke-miterlimit:10;" d="
				M174.5,286.725c0,0-0.011,0.001-0.026,0.003C174.491,286.726,174.5,286.725,174.5,286.725z"/>
			
				<linearGradient id="SVGID_00000041987895361948930080000016539437104622736541_" gradientUnits="userSpaceOnUse" x1="210.8041" y1="403.4753" x2="139.464" y2="174.5397">
				<stop  offset="0" style="stop-color:#00192A"/>
				<stop  offset="0.2981" style="stop-color:#28233C"/>
				<stop  offset="0.5857" style="stop-color:#462B4A"/>
				<stop  offset="0.8295" style="stop-color:#593052"/>
				<stop  offset="1" style="stop-color:#603255"/>
			</linearGradient>
			
				<path style="fill:none;stroke:url(#SVGID_00000041987895361948930080000016539437104622736541_);stroke-width:0.8214;stroke-linecap:round;stroke-miterlimit:10;" d="
				M174.46,286.729c-0.017,0.001-0.039,0.003-0.068,0.006C174.421,286.732,174.442,286.73,174.46,286.729z"/>
			
				<linearGradient id="SVGID_00000070106483842949353450000001615356393110855296_" gradientUnits="userSpaceOnUse" x1="210.7019" y1="403.5195" x2="139.355" y2="174.5622">
				<stop  offset="0" style="stop-color:#00192A"/>
				<stop  offset="0.2981" style="stop-color:#28233C"/>
				<stop  offset="0.5857" style="stop-color:#462B4A"/>
				<stop  offset="0.8295" style="stop-color:#593052"/>
				<stop  offset="1" style="stop-color:#603255"/>
			</linearGradient>
			
				<path style="fill:none;stroke:url(#SVGID_00000070106483842949353450000001615356393110855296_);stroke-width:0.8214;stroke-linecap:round;stroke-miterlimit:10;" d="
				M174.363,286.737c-0.029,0.002-0.062,0.005-0.1,0.008C174.302,286.742,174.334,286.74,174.363,286.737z"/>
			
				<linearGradient id="SVGID_00000096057748069614257670000011079038211624896157_" gradientUnits="userSpaceOnUse" x1="210.8712" y1="403.549" x2="139.4785" y2="174.4445">
				<stop  offset="0" style="stop-color:#00192A"/>
				<stop  offset="0.2981" style="stop-color:#28233C"/>
				<stop  offset="0.5857" style="stop-color:#462B4A"/>
				<stop  offset="0.8295" style="stop-color:#593052"/>
				<stop  offset="1" style="stop-color:#603255"/>
			</linearGradient>
			
				<path style="fill:none;stroke:url(#SVGID_00000096057748069614257670000011079038211624896157_);stroke-width:0.8214;stroke-linecap:round;stroke-miterlimit:10;" d="
				M174.474,286.728c-0.003,0-0.01,0.001-0.014,0.001C174.465,286.728,174.47,286.728,174.474,286.728z"/>
			
				<linearGradient id="SVGID_00000158025322331520905030000001717240261737930670_" gradientUnits="userSpaceOnUse" x1="210.4743" y1="403.6464" x2="139.0964" y2="174.5894">
				<stop  offset="0" style="stop-color:#00192A"/>
				<stop  offset="0.2981" style="stop-color:#28233C"/>
				<stop  offset="0.5857" style="stop-color:#462B4A"/>
				<stop  offset="0.8295" style="stop-color:#593052"/>
				<stop  offset="1" style="stop-color:#603255"/>
			</linearGradient>
			
				<path style="fill:none;stroke:url(#SVGID_00000158025322331520905030000001717240261737930670_);stroke-width:0.8214;stroke-linecap:round;stroke-miterlimit:10;" d="
				M174.082,286.758c-0.02,0.001-0.04,0.003-0.061,0.004C174.042,286.761,174.062,286.76,174.082,286.758z"/>
			
				<linearGradient id="SVGID_00000026854987126440925660000001046098284046801840_" gradientUnits="userSpaceOnUse" x1="210.6384" y1="403.5579" x2="139.2811" y2="174.5672">
				<stop  offset="0" style="stop-color:#00192A"/>
				<stop  offset="0.2981" style="stop-color:#28233C"/>
				<stop  offset="0.5857" style="stop-color:#462B4A"/>
				<stop  offset="0.8295" style="stop-color:#593052"/>
				<stop  offset="1" style="stop-color:#603255"/>
			</linearGradient>
			
				<path style="fill:none;stroke:url(#SVGID_00000026854987126440925660000001046098284046801840_);stroke-width:0.8214;stroke-linecap:round;stroke-miterlimit:10;" d="
				M174.263,286.745c-0.016,0.001-0.033,0.003-0.05,0.004C174.231,286.748,174.247,286.746,174.263,286.745z"/>
			
				<linearGradient id="SVGID_00000079479975375216889680000016441756872170746010_" gradientUnits="userSpaceOnUse" x1="209.9887" y1="403.7512" x2="138.6366" y2="174.7771">
				<stop  offset="0" style="stop-color:#00192A"/>
				<stop  offset="0.2981" style="stop-color:#28233C"/>
				<stop  offset="0.5857" style="stop-color:#462B4A"/>
				<stop  offset="0.8295" style="stop-color:#593052"/>
				<stop  offset="1" style="stop-color:#603255"/>
			</linearGradient>
			
				<path style="fill:none;stroke:url(#SVGID_00000079479975375216889680000016441756872170746010_);stroke-width:0.8214;stroke-linecap:round;stroke-miterlimit:10;" d="
				M173.572,286.788c-0.021,0.001-0.042,0.002-0.063,0.003C173.531,286.79,173.551,286.789,173.572,286.788z"/>
			
				<linearGradient id="SVGID_00000159443360219370489100000013365013584004101776_" gradientUnits="userSpaceOnUse" x1="210.2323" y1="403.6311" x2="138.9048" y2="174.7363">
				<stop  offset="0" style="stop-color:#00192A"/>
				<stop  offset="0.2981" style="stop-color:#28233C"/>
				<stop  offset="0.5857" style="stop-color:#462B4A"/>
				<stop  offset="0.8295" style="stop-color:#593052"/>
				<stop  offset="1" style="stop-color:#603255"/>
			</linearGradient>
			
				<path style="fill:none;stroke:url(#SVGID_00000159443360219370489100000013365013584004101776_);stroke-width:0.8214;stroke-linecap:round;stroke-miterlimit:10;" d="
				M173.852,286.773c-0.022,0.001-0.045,0.003-0.068,0.004C173.808,286.775,173.83,286.774,173.852,286.773z"/>
			
				<linearGradient id="SVGID_00000006677365915630236840000010059128623711925896_" gradientUnits="userSpaceOnUse" x1="210.7835" y1="403.5674" x2="139.396" y2="174.4797">
				<stop  offset="0" style="stop-color:#00192A"/>
				<stop  offset="0.2981" style="stop-color:#28233C"/>
				<stop  offset="0.5857" style="stop-color:#462B4A"/>
				<stop  offset="0.8295" style="stop-color:#593052"/>
				<stop  offset="1" style="stop-color:#603255"/>
			</linearGradient>
			
				<path style="fill:none;stroke:url(#SVGID_00000006677365915630236840000010059128623711925896_);stroke-width:0.8214;stroke-linecap:round;stroke-miterlimit:10;" d="
				M174.392,286.735c-0.008,0.001-0.02,0.002-0.029,0.002C174.373,286.736,174.383,286.736,174.392,286.735z"/>
			
				<linearGradient id="SVGID_00000054950119447180863320000009448099515025886606_" gradientUnits="userSpaceOnUse" x1="209.7264" y1="403.9887" x2="138.2879" y2="174.7376">
				<stop  offset="0" style="stop-color:#00192A"/>
				<stop  offset="0.2981" style="stop-color:#28233C"/>
				<stop  offset="0.5857" style="stop-color:#462B4A"/>
				<stop  offset="0.8295" style="stop-color:#593052"/>
				<stop  offset="1" style="stop-color:#603255"/>
			</linearGradient>
			
				<path style="fill:none;stroke:url(#SVGID_00000054950119447180863320000009448099515025886606_);stroke-width:0.8214;stroke-linecap:round;stroke-miterlimit:10;" d="
				M173.223,286.802c-0.01,0-0.018,0.001-0.028,0.001C173.205,286.803,173.214,286.803,173.223,286.802z"/>
			
				<linearGradient id="SVGID_00000035522383314362333500000004575494654607535531_" gradientUnits="userSpaceOnUse" x1="207.2827" y1="404.6586" x2="135.8958" y2="175.5729">
				<stop  offset="0" style="stop-color:#00192A"/>
				<stop  offset="0.2981" style="stop-color:#28233C"/>
				<stop  offset="0.5857" style="stop-color:#462B4A"/>
				<stop  offset="0.8295" style="stop-color:#593052"/>
				<stop  offset="1" style="stop-color:#603255"/>
			</linearGradient>
			
				<path style="fill:none;stroke:url(#SVGID_00000035522383314362333500000004575494654607535531_);stroke-width:0.8214;stroke-linecap:round;stroke-miterlimit:10;" d="
				M170.613,286.793c-0.04-0.002-0.081-0.004-0.121-0.006C170.533,286.789,170.573,286.791,170.613,286.793z"/>
			
				<linearGradient id="SVGID_00000165938080154186961880000006765133568244037559_" gradientUnits="userSpaceOnUse" x1="208.5826" y1="404.2441" x2="137.2005" y2="175.1738">
				<stop  offset="0" style="stop-color:#00192A"/>
				<stop  offset="0.2981" style="stop-color:#28233C"/>
				<stop  offset="0.5857" style="stop-color:#462B4A"/>
				<stop  offset="0.8295" style="stop-color:#593052"/>
				<stop  offset="1" style="stop-color:#603255"/>
			</linearGradient>
			
				<path style="fill:none;stroke:url(#SVGID_00000165938080154186961880000006765133568244037559_);stroke-width:0.8214;stroke-linecap:round;stroke-miterlimit:10;" d="
				M172.015,286.824c-0.015,0-0.03,0-0.045,0C171.985,286.824,172,286.824,172.015,286.824z"/>
			
				<linearGradient id="SVGID_00000031169220693997342740000001148716209184674962_" gradientUnits="userSpaceOnUse" x1="206.2901" y1="404.8066" x2="134.9925" y2="176.0076">
				<stop  offset="0" style="stop-color:#00192A"/>
				<stop  offset="0.2981" style="stop-color:#28233C"/>
				<stop  offset="0.5857" style="stop-color:#462B4A"/>
				<stop  offset="0.8295" style="stop-color:#593052"/>
				<stop  offset="1" style="stop-color:#603255"/>
			</linearGradient>
			
				<path style="fill:none;stroke:url(#SVGID_00000031169220693997342740000001148716209184674962_);stroke-width:0.8214;stroke-linecap:round;stroke-miterlimit:10;" d="
				M169.541,286.726c-0.032-0.003-0.063-0.005-0.095-0.007C169.478,286.721,169.509,286.723,169.541,286.726z"/>
			
				<linearGradient id="SVGID_00000141431737912753121930000001421324284046380709_" gradientUnits="userSpaceOnUse" x1="208.1406" y1="404.3041" x2="136.8015" y2="175.3718">
				<stop  offset="0" style="stop-color:#00192A"/>
				<stop  offset="0.2981" style="stop-color:#28233C"/>
				<stop  offset="0.5857" style="stop-color:#462B4A"/>
				<stop  offset="0.8295" style="stop-color:#593052"/>
				<stop  offset="1" style="stop-color:#603255"/>
			</linearGradient>
			
				<path style="fill:none;stroke:url(#SVGID_00000141431737912753121930000001421324284046380709_);stroke-width:0.8214;stroke-linecap:round;stroke-miterlimit:10;" d="
				M171.573,286.821c-0.029,0-0.058-0.001-0.086-0.001C171.516,286.82,171.544,286.82,171.573,286.821z"/>
			
				<linearGradient id="SVGID_00000021100586547315669760000008710884850184166787_" gradientUnits="userSpaceOnUse" x1="207.7064" y1="404.4427" x2="136.3658" y2="175.5056">
				<stop  offset="0" style="stop-color:#00192A"/>
				<stop  offset="0.2981" style="stop-color:#28233C"/>
				<stop  offset="0.5857" style="stop-color:#462B4A"/>
				<stop  offset="0.8295" style="stop-color:#593052"/>
				<stop  offset="1" style="stop-color:#603255"/>
			</linearGradient>
			
				<path style="fill:none;stroke:url(#SVGID_00000021100586547315669760000008710884850184166787_);stroke-width:0.8214;stroke-linecap:round;stroke-miterlimit:10;" d="
				M171.106,286.811c-0.037-0.001-0.075-0.002-0.112-0.004C171.032,286.808,171.069,286.81,171.106,286.811z"/>
			
				<linearGradient id="SVGID_00000055671409683849496260000014839758287143262339_" gradientUnits="userSpaceOnUse" x1="206.8077" y1="404.7712" x2="135.4407" y2="175.7493">
				<stop  offset="0" style="stop-color:#00192A"/>
				<stop  offset="0.2981" style="stop-color:#28233C"/>
				<stop  offset="0.5857" style="stop-color:#462B4A"/>
				<stop  offset="0.8295" style="stop-color:#593052"/>
				<stop  offset="1" style="stop-color:#603255"/>
			</linearGradient>
			
				<path style="fill:none;stroke:url(#SVGID_00000055671409683849496260000014839758287143262339_);stroke-width:0.8214;stroke-linecap:round;stroke-miterlimit:10;" d="
				M170.095,286.765c-0.04-0.002-0.08-0.005-0.12-0.007C170.015,286.76,170.055,286.763,170.095,286.765z"/>
			
				<linearGradient id="SVGID_00000135650727885910129640000004568557522581083813_" gradientUnits="userSpaceOnUse" x1="172.1417" y1="281.9129" x2="199.4032" y2="281.9129">
				<stop  offset="0" style="stop-color:#00192A"/>
				<stop  offset="0.2981" style="stop-color:#28233C"/>
				<stop  offset="0.5857" style="stop-color:#462B4A"/>
				<stop  offset="0.8295" style="stop-color:#593052"/>
				<stop  offset="1" style="stop-color:#603255"/>
			</linearGradient>
			<path style="fill:url(#SVGID_00000135650727885910129640000004568557522581083813_);" d="M199.403,278.221
				c-0.679-0.207-1.318-0.481-1.626-0.827c0,0-3.166,3.179-5.634,3.589c-2.467,0.41-15.388-0.718-20.002-3.589
				c0,0,1.025,2.666,6.358,5.127c2.614,1.206,6.78,2.701,10.348,3.911C198.185,284.829,199.403,278.221,199.403,278.221z"/>
			
				<path style="fill:none;stroke:#0D1333;stroke-width:0.8214;stroke-linecap:round;stroke-linejoin:round;stroke-miterlimit:10;" d="
				M193.072,262.336c-0.108-1.128,0.421-2.101,1.182-2.174c0.761-0.073,1.466,0.782,1.574,1.909"/>
			
				<path style="fill:none;stroke:#0D1333;stroke-width:0.8214;stroke-linecap:round;stroke-linejoin:round;stroke-miterlimit:10;" d="
				M174.153,267.961c-0.157-1.635,0.611-3.046,1.714-3.152c1.104-0.106,2.125,1.134,2.282,2.769"/>
			<g>
				
					<linearGradient id="SVGID_00000178179055939313391910000013920906270574772866_" gradientUnits="userSpaceOnUse" x1="174.7321" y1="262.9839" x2="173.1479" y2="259.2119">
					<stop  offset="0" style="stop-color:#00192A"/>
					<stop  offset="0.2981" style="stop-color:#28233C"/>
					<stop  offset="0.5857" style="stop-color:#462B4A"/>
					<stop  offset="0.8295" style="stop-color:#593052"/>
					<stop  offset="1" style="stop-color:#603255"/>
				</linearGradient>
				<path style="fill:url(#SVGID_00000178179055939313391910000013920906270574772866_);" d="M171.094,262.136
					c-0.022-0.726,0.231-1.305,0.615-1.829c0.392-0.509,0.952-0.917,1.599-1.143c0.641-0.232,1.371-0.269,2.012-0.076
					c0.647,0.176,1.2,0.565,1.563,1.135c0.15,0.237,0.08,0.55-0.156,0.7c-0.024,0.015-0.048,0.028-0.073,0.038l-0.067,0.028
					c-0.591,0.248-1.016,0.348-1.383,0.503l-0.962,0.346l-1.026,0.331c-0.395,0.115-0.842,0.279-1.421,0.394l-0.131,0.026
					c-0.258,0.052-0.51-0.116-0.561-0.374C171.098,262.189,171.095,262.161,171.094,262.136z"/>
			</g>
			<g>
				
					<linearGradient id="SVGID_00000134959218315670987880000011069742516880197809_" gradientUnits="userSpaceOnUse" x1="193.7268" y1="257.6911" x2="192.405" y2="254.5441">
					<stop  offset="0" style="stop-color:#00192A"/>
					<stop  offset="0.2981" style="stop-color:#28233C"/>
					<stop  offset="0.5857" style="stop-color:#462B4A"/>
					<stop  offset="0.8295" style="stop-color:#593052"/>
					<stop  offset="1" style="stop-color:#603255"/>
				</linearGradient>
				<path style="fill:url(#SVGID_00000134959218315670987880000011069742516880197809_);" d="M190.874,256.878
					c-0.051-0.583,0.129-1.044,0.419-1.463c0.296-0.406,0.732-0.732,1.24-0.91c1.018-0.375,2.266-0.046,2.77,0.909
					c0.121,0.23,0.033,0.514-0.197,0.635c-0.001,0.001-0.002,0.001-0.003,0.002l-0.057,0.029c-0.459,0.234-0.773,0.337-1.034,0.473
					c-0.26,0.108-0.453,0.207-0.667,0.277c-0.212,0.072-0.446,0.13-0.742,0.203c-0.299,0.064-0.648,0.164-1.119,0.216l-0.138,0.015
					c-0.234,0.026-0.445-0.143-0.471-0.377C190.875,256.885,190.874,256.881,190.874,256.878z"/>
			</g>
			
				<linearGradient id="SVGID_00000072972349443380601690000008485985508572292279_" gradientUnits="userSpaceOnUse" x1="197.9733" y1="273.3936" x2="196.6369" y2="269.1048">
				<stop  offset="0" style="stop-color:#00192A"/>
				<stop  offset="0.2981" style="stop-color:#28233C"/>
				<stop  offset="0.5857" style="stop-color:#462B4A"/>
				<stop  offset="0.8295" style="stop-color:#593052"/>
				<stop  offset="1" style="stop-color:#603255"/>
			</linearGradient>
			<path style="fill:url(#SVGID_00000072972349443380601690000008485985508572292279_);" d="M193.73,270.011l1.628-0.44
				c1.342-0.362,2.752-0.384,4.104-0.064l0.538,0.127c0,0,0.288,2.529-2.248,3.828C197.751,273.463,194.433,272.848,193.73,270.011z
				"/>
			
				<linearGradient id="SVGID_00000166650151267211975580000011696348122849500301_" gradientUnits="userSpaceOnUse" x1="197.34" y1="275.4284" x2="198.1881" y2="275.4284">
				<stop  offset="0" style="stop-color:#00192A"/>
				<stop  offset="0.2981" style="stop-color:#28233C"/>
				<stop  offset="0.5857" style="stop-color:#462B4A"/>
				<stop  offset="0.8295" style="stop-color:#593052"/>
				<stop  offset="1" style="stop-color:#603255"/>
			</linearGradient>
			
				<line style="fill:none;stroke:url(#SVGID_00000166650151267211975580000011696348122849500301_);stroke-width:0.8214;stroke-linecap:round;stroke-miterlimit:10;" x1="197.751" y1="273.463" x2="197.777" y2="277.394"/>
			<path style="fill:#FF7694;" d="M203.255,286.63c-0.826-1.446-1.822-2.621-3.576-3.595c-3.254-1.807-7.535-2.052-7.535-2.052
				c-1.966,0.327-10.567-0.324-16.316-2.055c-0.313,2.867,13.541,6.361,17.902,8.128c0,0,0,0,0,0
				c4.361,1.767,6.273,6.024,7.253,5.979C203.915,292.899,205.734,290.969,203.255,286.63z"/>
			<path style="fill:#FF5278;" d="M195.84,281.586c-2.037-0.508-3.696-0.603-3.696-0.603c-1.966,0.327-10.567-0.324-16.316-2.055
				c-0.144,1.318,2.705,2.767,6.248,4.121C185.97,283.479,192.133,283.713,195.84,281.586z"/>
		</g>
		<polygon style="fill:#D09460;" points="119.976,330.1 119.976,389.197 233.33,389.197 233.33,330.1 121.992,330.1 		"/>
		<polygon style="fill:#E1AB7D;" points="118.508,320.164 113.74,344.221 239.818,346.836 235.966,320.164 		"/>
		<polygon style="fill:#FCF5ED;" points="130.912,356.921 132.962,374.731 223.079,370.71 223.629,353.406 		"/>
		<text transform="matrix(1 0 0 1 142.8135 368.0491)" style="fill:#10161E; font-family:'Montserrat-Bold'; font-size:12px;">Adopt me!</text>
		<path style="fill:#ED983B;" d="M152.048,318.734c0,0,1.662,5.686,19.157,8.048l1.662-15.57l-5.948-0.7l-9.01,1.137
			L152.048,318.734z"/>
		<path style="fill:#FCF5ED;" d="M182.01,334.678c3.829,0,3.412-4.744,2.006-14.232c-1.326-8.947-3.566-9.161-11.678-9.366
			c-1.54,1.041-3.559,3.152-3.464,7.035c0.061,2.5,0.744,5.652,1.541,8.535c2.162,0.225,3.616,0.287,3.616,0.287
			S178.181,334.678,182.01,334.678z"/>
		
			<linearGradient id="SVGID_00000068637202593153527170000014749069294345443213_" gradientUnits="userSpaceOnUse" x1="151.802" y1="318.1156" x2="185.5225" y2="318.1156">
			<stop  offset="0" style="stop-color:#00192A"/>
			<stop  offset="0.2981" style="stop-color:#28233C"/>
			<stop  offset="0.5857" style="stop-color:#462B4A"/>
			<stop  offset="0.8295" style="stop-color:#593052"/>
			<stop  offset="1" style="stop-color:#603255"/>
		</linearGradient>
		
			<path style="fill:none;stroke:url(#SVGID_00000068637202593153527170000014749069294345443213_);stroke-linecap:round;stroke-miterlimit:10;" d="
			M163.419,301.553c0.91,3.995-1.993,9.238,7.384,9.488c9.376,0.25,11.808-0.083,13.214,9.405
			c1.406,9.488,1.823,14.232-2.006,14.232s-7.979-7.74-7.979-7.74s-18.641-0.793-21.729-7.041"/>
		
			<linearGradient id="SVGID_00000088820334008416209230000001666187154879328390_" gradientUnits="userSpaceOnUse" x1="208.0176" y1="321.7159" x2="205.9517" y2="315.0864">
			<stop  offset="0" style="stop-color:#00192A"/>
			<stop  offset="0.2981" style="stop-color:#28233C"/>
			<stop  offset="0.5857" style="stop-color:#462B4A"/>
			<stop  offset="0.8295" style="stop-color:#593052"/>
			<stop  offset="1" style="stop-color:#603255"/>
		</linearGradient>
		
			<path style="fill:none;stroke:url(#SVGID_00000088820334008416209230000001666187154879328390_);stroke-linecap:round;stroke-miterlimit:10;" d="
			M207.471,321.363c0,0-1.197-2.913-0.937-5.909"/>
		<g>
			<path style="fill:none;" d="M218.274,321.097c0.089,0.889,0.149,1.705,0.175,2.446
				C218.423,322.802,218.363,321.987,218.274,321.097z"/>
			<path style="fill:none;" d="M218.274,321.097c-0.177-1.779-0.466-3.855-0.818-6.227c-0.048-0.32-0.099-0.627-0.153-0.925
				c0.051,0.305,0.104,0.597,0.153,0.925C217.807,317.243,218.097,319.318,218.274,321.097z"/>
			<path style="fill:#FCF5ED;" d="M218.449,323.543c-0.026-0.741-0.086-1.557-0.175-2.446c-0.177-1.779-0.467-3.855-0.818-6.227
				c-0.049-0.328-0.102-0.62-0.153-0.925c-1.349-7.438-4.783-8.14-11.639-8.356c-1.524,1.067-3.443,3.16-3.351,6.951
				c0.061,2.5-0.153,4.798,0.644,7.681c2.161,0.225,4.512,1.141,4.513,1.141h0c0,0,0.794,1.482,2.009,3.148
				c0.867,1.191,1.949,2.475,3.108,3.383c0.464,0.363,0.94,0.665,1.42,0.877c0.48,0.212,0.964,0.333,1.442,0.333
				C217.843,329.103,218.577,327.25,218.449,323.543z"/>
		</g>
		
			<linearGradient id="SVGID_00000176742108319377460960000008485450193327173799_" gradientUnits="userSpaceOnUse" x1="208.0176" y1="321.7159" x2="205.9517" y2="315.0864">
			<stop  offset="0" style="stop-color:#00192A"/>
			<stop  offset="0.2981" style="stop-color:#28233C"/>
			<stop  offset="0.5857" style="stop-color:#462B4A"/>
			<stop  offset="0.8295" style="stop-color:#593052"/>
			<stop  offset="1" style="stop-color:#603255"/>
		</linearGradient>
		
			<path style="fill:none;stroke:url(#SVGID_00000176742108319377460960000008485450193327173799_);stroke-linecap:round;stroke-miterlimit:10;" d="
			M207.471,321.363c0,0-1.197-2.913-0.937-5.909"/>
	</g>
	<g>
		
			<linearGradient id="SVGID_00000025400609977274159210000004801622019808530305_" gradientUnits="userSpaceOnUse" x1="352.5073" y1="157.7861" x2="352.5073" y2="104.8731">
			<stop  offset="0" style="stop-color:#000028"/>
			<stop  offset="1" style="stop-color:#002D4F"/>
		</linearGradient>
		<path style="fill:url(#SVGID_00000025400609977274159210000004801622019808530305_);" d="M381.204,129.404
			c-1.541-13.661-16.766-16.664-16.787-16.757c-1.836-9.65-14.293-8.839-22.417-5.441l4.135,2.829c0,0-19.587-0.871-21.981,11.97
			c-1.611,8.642,0.851,7.157,0.023,14.217c-1.045,8.91,2.822,18.588,9.25,18.588c-0.012-0.04-0.02-0.085-0.032-0.125
			c-2.844-9.722-0.26-24.912,0.472-27.063c5.695,4.121,18.209,0.558,23.466-1.893c0.018,2.715,3.036,9.625,7.402,14.683
			l1.392,11.114l0.784,6.261C379.975,155.367,382.225,138.451,381.204,129.404z"/>
		<g>
			<path style="fill:#FECEAA;" d="M337.36,149.254c0.021,3.823-3.061,6.939-6.885,6.96c-3.823,0.021-6.939-3.062-6.96-6.885
				c-0.021-3.823,3.062-6.939,6.885-6.96C334.223,142.348,337.339,145.431,337.36,149.254z"/>
			<path style="fill:none;stroke:#0D1333;stroke-linecap:round;stroke-linejoin:round;stroke-miterlimit:10;" d="M328.76,145.139
				c0,0-2.844,3.344,0.304,6.312"/>
			<path style="fill:none;stroke:#0D1333;stroke-linecap:round;stroke-linejoin:round;stroke-miterlimit:10;" d="M327.552,148.83
				c0,0,2.426-2.763,8.13-0.021"/>
		</g>
		<path style="fill:#FECEAA;" d="M357.922,377.746c4.61,0.711,5.747,0.578,26.965-2.154c21.219-2.732,43.854,9.275,46.983,4.744
			c3.128-4.531-9.396-10.517-17.226-14.727c-7.83-4.21-10.062-12.886-16.353-14.537c-6.291-1.651-8.389,4.604-40.369,5.673V377.746z
			"/>
		<path style="fill:#FECEAA;" d="M268.151,338.97c-0.382,3.338,5.523,24.761-0.993,28.662c-7.038,4.214-28.499,6.081-27.369,12.889
			c0.758,4.57,3.915,6.643,18.697,4.152c20.454-3.447,26.549,0.396,30.937-1.282c6.865-2.624,4.654-9.662,2.173-21.391
			c-1.923-9.094-2.931-20.338-3.185-23.031H268.151z"/>
		<path style="fill:#FFFFFF;" d="M294.108,389.197h-64.379c0,0-1.776-2.63,0.45-4.249l63.93-2.225
			C294.108,382.723,298.356,384.746,294.108,389.197z"/>
		
			<linearGradient id="SVGID_00000158748724735758364430000002695278293543894662_" gradientUnits="userSpaceOnUse" x1="229.7283" y1="373.0974" x2="294.1076" y2="373.0974">
			<stop  offset="0" style="stop-color:#000028"/>
			<stop  offset="1" style="stop-color:#002D4F"/>
		</linearGradient>
		<path style="fill:url(#SVGID_00000158748724735758364430000002695278293543894662_);" d="M292.894,369.008
			c-1.676,1.556-4.956,4.005-9.019,4.005c-5.952,0-11.414-8.295-11.414-8.295l-2.023-3.439c0,0-3.035-0.607-4.248,3.439
			c0,0-34.999,15.983-36.011,16.994c-1.012,1.012,0,3.237,0,3.237l63.93-2.225v-14.971
			C294.108,367.752,293.673,368.284,292.894,369.008z"/>
		<path style="fill:none;stroke:#FFFFFF;stroke-linecap:round;stroke-linejoin:round;stroke-miterlimit:10;" d="M266.189,364.718
			c0,0,0.059-11.228-3.663-9.509C258.805,356.929,266.189,364.718,266.189,364.718z"/>
		<path style="fill:none;stroke:#FFFFFF;stroke-linecap:round;stroke-linejoin:round;stroke-miterlimit:10;" d="M266.189,364.718
			c0,0-8.193-6.134-9.913-3.472C254.556,363.908,266.189,364.718,266.189,364.718z"/>
		
			<line style="fill:none;stroke:#FFFFFF;stroke-width:2;stroke-linecap:round;stroke-linejoin:round;stroke-miterlimit:10;" x1="263.068" y1="366.146" x2="267.201" y2="372.304"/>
		
			<line style="fill:none;stroke:#FFFFFF;stroke-width:2;stroke-linecap:round;stroke-linejoin:round;stroke-miterlimit:10;" x1="257.785" y1="368.725" x2="261.918" y2="374.883"/>
		<path style="fill:#A06B44;" d="M292.136,345.168c-2.018-8.169-0.69-41.642-1.219-47.914c-0.626-7.41,47.018,22.378,62.434,12.58
			c0,0-5.539-28.125,4.572-46.539l-12.4-3.394c0,0-66.335-12.038-78.455-9.721c-12.119,2.317-14.657,14.011-8.051,47.858
			c2.427,12.435,7.231,44.728,6.431,47.13C265.447,345.168,281.994,350.506,292.136,345.168L292.136,345.168z"/>
		
			<linearGradient id="SVGID_00000149377571785919881290000015585765756044322713_" gradientUnits="userSpaceOnUse" x1="331.364" y1="333.7286" x2="331.364" y2="185.0992">
			<stop  offset="0" style="stop-color:#8D5F3E;stop-opacity:0"/>
			<stop  offset="1" style="stop-color:#5F3409"/>
		</linearGradient>
		<path style="fill:url(#SVGID_00000149377571785919881290000015585765756044322713_);" d="M353.351,309.833
			c0,0-5.539-28.125,4.572-46.539l-12.4-3.394c0,0-20.451-3.711-40.716-6.615c3.682,11.441,12.572,40.139,13.185,52.219
			C331.347,310.372,346.102,314.44,353.351,309.833z"/>
		<path style="fill:#A06B44;" d="M371.869,377.395c-25.851,4.868-66.505,10.606-70.331,10.016
			c-4.61-0.711-13.287-5.135-10.585-17.61c1.359-6.276,16.521-33.22,26.01-45.482c9.489-12.262,23.783-31.598,27.726-39.407
			c3.943-7.81,3.664-18.236,10.029-22.485c0,0,33.793,10.752,41.29,10.701c0,0-3.672,7.064-4.08,12.91
			c-0.397,5.696,6.764,24.501-25.196,47.782c-7.783,5.669-22.344,19.162-17.672,20.671c2.943,0.951,12.713,0.837,20.74,0.528l0,0
			c3.274,6.562,4.11,14.074,2.359,21.196L371.869,377.395z"/>
		<path style="fill:none;stroke:#0D1333;stroke-miterlimit:10;" d="M390.364,286.044c0,0-2.582,20.695-23.145,38.869
			c-16.605,14.676-30.319,28.519-27.174,31.919c5.109,5.523,31.185,1.545,31.185,1.545"/>
		<path style="fill:#47273E;" d="M372.84,281.439c3.575,1.793,13.342,2.744,17.524,4.605c0,0,0.231,5.466-3.604,12.014
			c0,0-11.281,0.786-19.541-3.564C369.763,290.053,372.016,284.176,372.84,281.439z"/>
		<path style="fill:#47273E;" d="M326.867,259.089l5.844-3.336c1.111,1,2.343,1.971,3.913,3.267
			c-3.446,3.119-6.493,6.843-8.638,9.726C326.101,267.052,325.892,260.311,326.867,259.089z"/>
		<path style="fill:#47273E;" d="M352.173,270.516c4.646,3.125,10.04,6.349,16.399,9.687c-0.001-0.001-0.003-0.001-0.004-0.002
			c-1.322,3.89-3.967,8.797-5.779,11.953c-3.079-0.585-13.172-5.826-18.48-9.145c-5.822-3.64-9.209-6.051-12.708-11.146
			c3.085-4.26,6.615-8.16,8.439-10.101C343.307,264.311,347.316,267.251,352.173,270.516z"/>
		<path style="fill:#ED8D1B;" d="M352.173,270.516c-2.644-1.778-5.015-3.449-7.173-5.023c-3.527,4.677-6.337,9.503-7.94,12.466
			c2.018,1.703,4.327,3.222,7.25,5.049c2.078,1.299,4.889,2.891,7.725,4.385l7.067-12.498
			C356.627,273.415,354.31,271.954,352.173,270.516z"/>
		<path style="fill:none;stroke:#0D1333;stroke-miterlimit:10;" d="M336.624,297.667c0,0-44.43-11.209-49.242-5.513
			c-3.794,4.49,0.868,54.499,0.868,54.499"/>
		<g>
			<path style="fill:#5084D8;" d="M331.602,207.856c6.864-18.538,3.122-31.441,3.122-31.441
				c-10.421-0.494-38.407,39.848-44.281,44.452c-3.842,3.011-31.067,23.154-34.598,28.241l10.85,17.997
				c22.835-10.816,40.838-27.017,40.838-27.017S324.738,226.394,331.602,207.856z"/>
			<path style="fill:#47273E;" d="M238.729,257.814c-2.075,1.165,2.335,6.651,5.087,9.733c2.752,3.081,6.015,6.595,7.972,5.18
				C252.31,267.367,248.497,258.506,238.729,257.814z"/>
			<g>
				<g>
					<path style="fill:#FECEAA;" d="M258.219,251.349c-6.7,4.825-13.078,9.603-13.078,9.603c-1.1-0.413-9.493-3.407-16.352-1.489
						c-7.354,2.056-17.895,14.994-18.128,18.926c-0.233,3.933,3.902,1.659,5.823-1.843c1.922-3.502-0.075,4.576,3.946,5.278
						c0.722,0.126,1.342-0.13,1.873-0.635c0,0,0.657,3.15,3.8,1.176c0,0,5.083,2.773,6.915-0.01
						c1.832-2.784-2.784-1.832-1.483-3.115c1.301-1.282,3.546-1.644,5.945-1.791c5.62-0.345,6.189-3.547,8.872-4.865
						c4.459-2.19,11.945-5.531,20.22-9.497"/>
				</g>
			</g>
			<g>
				<path style="fill:#FFFFFF;" d="M267.853,266.413c-1.264,1.116-12.068,5.365-16.065,6.314c0.523-5.36-3.29-14.221-13.059-14.913
					c0.001,0,8.999-5.263,13.967-7.465c1.313-0.582,2.437-1.038,3.149-1.241c0,0,1.866-0.868,8.496,6.539
					C271.014,263.102,267.853,266.413,267.853,266.413z"/>
			</g>
			<g>
				<path style="fill:none;stroke:#0D1333;stroke-linecap:round;stroke-linejoin:round;stroke-miterlimit:10;" d="M225.386,265.885
					c0,0-3.35,7.795,1.007,7.515c2.665-0.171,4.266-6.527,7.699-9.3"/>
				<path style="fill:none;stroke:#0D1333;stroke-linecap:round;stroke-linejoin:round;stroke-miterlimit:10;" d="M222.304,281.189
					c1.186-1.193,5.132-4.615,4.61-6.202c-0.261-0.793-1.84-1.89-2.759-1.075c-1.188,1.054-3.859,3.561-3.859,3.561"/>
				<path style="fill:none;stroke:#0D1333;stroke-linecap:round;stroke-linejoin:round;stroke-miterlimit:10;" d="M226.104,282.365
					c0,0,4.628-4.856,3.494-5.873c-1.134-1.017-3.044,0.008-3.044,0.008"/>
				<path style="fill:none;stroke:#0D1333;stroke-linecap:round;stroke-linejoin:round;stroke-miterlimit:10;" d="M228.266,283.241
					c0,0,3.979,1.351,4.9-1.133c0.92-2.484-0.984-2.037-3.385-3.532"/>
				<path style="fill:none;stroke:#0D1333;stroke-linecap:round;stroke-linejoin:round;stroke-miterlimit:10;" d="M217.176,275.676
					c2.491-3.348,5.157-5.038,5.157-5.038"/>
			</g>
		</g>
		<path style="fill:#47273E;" d="M361.089,294.13c0-0.001,0-0.001,0.001-0.001C361.143,294.158,361.149,294.162,361.089,294.13z"/>
		<path style="fill:#598EF6;" d="M327.851,184.741c-3.784,8.863-3.868,40.555-2.826,51.637c1.27,13.505-1.23,21.174,13.317,35.446
			c6.135,6.019,45.207,24.008,56.029,13.393c10.822-10.615,5.462-48.399,2.799-58.356c-3.157-11.806-3.883-23.073-11.623-43.428
			c-3.559-9.359-13.078-11.447-35.413-11.209C342.575,172.304,332.169,174.626,327.851,184.741z"/>
		<g>
			<g>
				<path style="fill:#FECEAA;" d="M357.333,125.728c-5.257,2.451-17.771,6.015-23.466,1.893
					c-0.732,2.151-3.316,17.341-0.472,27.063c1.486,4.344,4.076,8.24,8.405,10.778c1.304,0.765,2.652,1.252,3.988,1.574
					c9.861,2.381,19.701-5.64,21.297-7.879l-0.956-7.632l-1.392-11.114C360.369,135.353,357.351,128.443,357.333,125.728z"/>
			</g>
		</g>
		<path style="fill:#FECEAA;" d="M345.638,179.451c0.371-3.996,0.691-7.443,0.149-12.415c9.861,2.381,19.701-5.64,21.297-7.879
			l1.944,16.41c0,0-0.248,6.245-11.689,8.839C345.626,187.062,345.638,179.451,345.638,179.451z"/>
		<path style="fill:#EAB48F;" d="M345.787,167.036c0.33,3.028,0.345,6.313,0.223,9.322c4.64-0.202,16.688-1.785,21.66-12.466
			l-0.586-4.735C365.488,161.396,355.648,169.417,345.787,167.036z"/>
		<g>
			<path style="fill:none;stroke:#0D1333;stroke-linecap:round;stroke-linejoin:round;stroke-miterlimit:10;" d="M343.07,152.929
				l-1.45-0.809c-1.505-0.84-1.851-2.855-0.713-4.149l3.136-3.564c1.328-1.51,2.218-3.353,2.576-5.332"/>
			<path style="opacity:0.5;fill:#EB2730;" d="M357.416,144.892c-1.714-0.417-2.093,2.229-2.093,2.229s-1.22-2.379-2.705-1.425
				c-1.484,0.953,2.347,5.595,3.375,5.423C357.021,150.947,359.129,145.309,357.416,144.892z"/>
			<path style="opacity:0.5;fill:#EB2730;" d="M338.139,146.096c-1.274-0.31-1.555,1.657-1.555,1.657s-0.907-1.768-2.01-1.06
				c-1.103,0.709,1.744,4.159,2.509,4.031C337.846,150.596,339.413,146.406,338.139,146.096z"/>
			<path style="fill:none;stroke:#0D1333;stroke-linecap:round;stroke-linejoin:round;stroke-miterlimit:10;" d="M340.46,134.693
				c-1.135,1.08-1.795,3.058-1.795,3.058"/>
			<path style="fill:none;stroke:#0D1333;stroke-linecap:round;stroke-linejoin:round;stroke-miterlimit:10;" d="M354.738,134.182
				c1.209,0.996,2.009,2.922,2.009,2.922"/>
			<path style="fill:none;stroke:#0D1333;stroke-linecap:round;stroke-linejoin:round;stroke-miterlimit:10;" d="M347.096,158.356
				c0,0,2.826,1.03,5.148-1.36"/>
			<path style="fill:none;stroke:#0D1333;stroke-linecap:round;stroke-linejoin:round;stroke-miterlimit:10;" d="M351.794,142.027
				c0-0.658,0.533-1.191,1.191-1.191c0.658,0,1.192,0.533,1.192,1.191"/>
			<path style="fill:none;stroke:#0D1333;stroke-linecap:round;stroke-linejoin:round;stroke-miterlimit:10;" d="M340.244,141.603
				c0-0.658,0.533-1.191,1.191-1.191c0.658,0,1.192,0.534,1.192,1.191"/>
		</g>
		<path style="fill:#598EF6;" d="M335.742,255.261c0,0,17.488,9.398,26,2.552c8.512-6.846,15.945-45.031,23.845-46.318
			L335.742,255.261z"/>
		<g>
			<path style="fill:#FECEAA;" d="M363.3,147.459c1.244,3.615,5.184,5.537,8.799,4.292c3.615-1.244,5.536-5.184,4.292-8.799
				c-1.245-3.615-5.184-5.537-8.799-4.292C363.977,139.905,362.055,143.844,363.3,147.459z"/>
			<path style="fill:none;stroke:#0D1333;stroke-linecap:round;stroke-linejoin:round;stroke-miterlimit:10;" d="M369.173,141.503
				c0,0,3.789,2.216,1.799,6.057"/>
			<path style="fill:none;stroke:#0D1333;stroke-linecap:round;stroke-linejoin:round;stroke-miterlimit:10;" d="M371.538,144.605
				c0,0-4.509-1.49-5.815,2.645"/>
		</g>
		<path style="fill:#598EF6;" d="M385.587,216.073c-7.197-3.188-22.28,34.77-31.199,39.68c-8.919,4.91-49.159-10.785-51.693-12.788
			c-2.533-2.003,0.145-14.027,3.743-16.097c3.598-2.071,27.099,7.162,33.23,7.094c6.131-0.068,11.356-17.343,15.982-30.078
			c3.602-9.917,15.358-28.701,29.358-21.701"/>
		<path style="fill:#47273E;" d="M298.125,221.757c0,0-4.313,12.335-0.551,19.815c0,0,4.008-2.286,4.385-9.528
			C302.337,224.801,298.125,221.757,298.125,221.757z"/>
		<path style="fill:#FECEAA;" d="M309.8,228.616c-5.124-1.27-7.518-5.595-17.099-6.618c-7.371-0.787-18.83,0.138-26.278,6.091
			c-2.089,1.669-5.467,4.7-5.453,7.515c0,0-0.158,3.093,7.207-2.25c7.365-5.343,10.177-5.174,10.177-5.174s-8.83,6.204-3.743,10.375
			c1.406,1.153,1.872,0.075,2.289,0.866c1.667,3.167,6.992,5.505,9.485,3.734c3.139-2.229,1.111-3.832,1.111-3.832
			s6.78,1.134,9.795-0.669c3.015-1.803,9.57,0.743,9.57,0.743S314.193,229.704,309.8,228.616z"/>
		<path style="fill:none;stroke:#0D1333;stroke-linecap:round;stroke-linejoin:round;stroke-miterlimit:10;" d="M277.095,238.988
			c0,0,0.667-7.208,4.792-9.208"/>
		<path style="fill:none;stroke:#0D1333;stroke-linecap:round;stroke-linejoin:round;stroke-miterlimit:10;" d="M279.92,241.572
			c0,0,0.667-7.208,4.792-9.208"/>
		<path style="fill:none;stroke:#0D1333;stroke-linecap:round;stroke-linejoin:round;stroke-miterlimit:10;" d="M287.495,239.322
			c0,0-0.283-1.488-2.783-0.025"/>
		<path style="fill:none;stroke:#0D1333;stroke-width:0.5;stroke-linecap:round;stroke-linejoin:round;stroke-miterlimit:10;" d="
			M385.587,216.073c-7.197-3.188-22.28,34.77-31.199,39.68c-8.919,4.91-49.159-10.785-51.693-12.788
			c-2.533-2.003,0.145-14.027,3.743-16.097c3.598-2.071,27.099,7.162,33.23,7.094c6.131-0.068,11.356-17.343,15.982-30.078
			c2.621-7.215,9.557-19.123,18.533-22.381"/>
		<path style="fill:#FFFFFF;" d="M313.652,247.854c-1.686-0.04-12.5-4.263-16.078-6.282c4.025-3.578,7.248-12.67,0.551-19.815
			c0.001,0,10.179,2.252,15.32,4.012c1.359,0.465,2.493,0.894,3.154,1.229c0,0,1.958,0.631,1.791,10.571
			C318.222,247.574,313.652,247.854,313.652,247.854z"/>
		<path style="fill:#FFFFFF;" d="M396.285,339.074l45.523,45.523c0,0-0.604,3.115-3.322,2.686l-46.779-43.632
			C391.707,343.651,390.134,339.217,396.285,339.074z"/>
		
			<linearGradient id="SVGID_00000029738589271221790970000001899343317682684043_" gradientUnits="userSpaceOnUse" x1="261.3678" y1="397.2905" x2="325.7477" y2="397.2905" gradientTransform="matrix(-0.7071 -0.7071 0.7071 -0.7071 334.3131 861.7182)">
			<stop  offset="0" style="stop-color:#000028"/>
			<stop  offset="1" style="stop-color:#002D4F"/>
		</linearGradient>
		<path style="fill:url(#SVGID_00000029738589271221790970000001899343317682684043_);" d="M382.868,354.208
			c2.285,0.085,6.336,0.673,9.209,3.546c4.209,4.209,2.206,13.937,2.206,13.937l-1.001,3.862c0,0,1.717,2.575,5.436,0.572
			c0,0,36.05,13.447,37.48,13.447c1.431,0,2.289-2.289,2.289-2.289l-46.779-43.632l-10.586,10.586
			C381.122,354.237,381.805,354.168,382.868,354.208z"/>
		<path style="fill:none;stroke:#FFFFFF;stroke-linecap:round;stroke-linejoin:round;stroke-miterlimit:10;" d="M398.717,376.125
			c0,0-7.982,7.897-4.134,9.313C398.431,386.854,398.717,376.125,398.717,376.125z"/>
		<path style="fill:none;stroke:#FFFFFF;stroke-linecap:round;stroke-linejoin:round;stroke-miterlimit:10;" d="M398.717,376.125
			c0,0,1.456,10.131,4.555,9.464C406.37,384.923,398.717,376.125,398.717,376.125z"/>
		
			<line style="fill:none;stroke:#FFFFFF;stroke-width:2;stroke-linecap:round;stroke-linejoin:round;stroke-miterlimit:10;" x1="401.935" y1="377.322" x2="403.366" y2="370.045"/>
		
			<line style="fill:none;stroke:#FFFFFF;stroke-width:2;stroke-linecap:round;stroke-linejoin:round;stroke-miterlimit:10;" x1="407.493" y1="379.233" x2="408.925" y2="371.957"/>
	</g>
	<g>
		<g>
			<g>
				<g>
					
						<linearGradient id="SVGID_00000146501714469842143910000005023058624930902972_" gradientUnits="userSpaceOnUse" x1="16.8348" y1="509.3221" x2="106.5865" y2="353.8676">
						<stop  offset="0" style="stop-color:#014554"/>
						<stop  offset="0.987" style="stop-color:#016B54"/>
					</linearGradient>
					<path style="fill:url(#SVGID_00000146501714469842143910000005023058624930902972_);" d="M0.688,332.431
						c0,0,14.561-6.166,18.201,30.589c3.64,36.756,0.91-48.791,17.291-48.791s6.371,54.281,6.371,54.281
						s14.561-33.628,34.583-25.298s0,48.127,0,48.127s20.932-11.41,27.302-1.942c6.371,9.468,0,22.961,0,22.961
						s22.752-17.49,30.943,3.165c8.191,20.655-40.043,41.665-40.043,41.665s60.975-11.909,63.705,7.203
						c1.16,8.122-10.994,15.773-25.356,21.885C111.974,495.517,88.535,500,64.938,500H0.688V332.431z"/>
					<path style="fill:#145B2C;" d="M48.579,391.907c0,0,6.445,22.132-15.644,21.425C32.936,413.332,23.392,395.096,48.579,391.907z
						"/>
					<path style="fill:#EF6F18;" d="M73.547,400.751c0,0-5.028,17.266,12.204,16.714C85.751,417.465,93.196,403.239,73.547,400.751z
						"/>
					<path style="fill:#145B2C;" d="M93.323,398.343c0,0,9.386,15.34-7.386,19.333C85.936,417.676,75.017,405.904,93.323,398.343z"
						/>
					<path style="fill:#EF6F18;" d="M84.004,341.309c0,0,13.824,29.5-19.138,31.597C64.866,372.906,47.186,349.187,84.004,341.309z"
						/>
					<path style="fill:#145B2C;" d="M15.707,362.409c0,0,15.959,8.19,3.748,20.301C19.455,382.71,4.041,378.354,15.707,362.409z"/>
					<path style="fill:#145B2C;" d="M135.165,449.195c0,0-5.016,27.804-28.866,14.964
						C106.299,464.159,105.788,438.938,135.165,449.195z"/>
					<path style="fill:#EF6F18;" d="M142.324,407.574c0,0,1.013,20.927-18.362,15.627
						C123.962,423.201,119.386,405.063,142.324,407.574z"/>
				</g>
				<path style="fill:#20A54C;" d="M0,375.667c0,0,15.744-5.333,15.744,20.333s0,23.667,0,23.667S36.735,388.333,56.852,401
					c20.117,12.667-4.811,31-4.811,31s21.866-8,32.799,0s-7.872,17.667-7.872,17.667s24.927-10,30.613-3.667
					c5.685,6.333-10.058,25.333-10.058,25.333s28.863-4.333,30.613,11C129.885,497.667,104.958,500,104.958,500H0V375.667z"/>
				<g>
					<g>
						<g>
							<path style="fill:#145B2C;" d="M243.822,375.69c0,0,2.464-8.355-3.07-10.976C240.751,364.714,236.82,372.837,243.822,375.69z
								"/>
							<path style="fill:#145B2C;" d="M244.117,376.302l-0.469-0.191c-1.97-0.803-3.306-2.082-3.972-3.802
								c-1.366-3.528,0.58-7.622,0.664-7.794l0.196-0.406l0.411,0.194c5.82,2.757,3.418,11.161,3.313,11.517L244.117,376.302z
								 M240.978,365.346c-0.438,1.104-1.431,4.106-0.447,6.642c0.517,1.332,1.518,2.361,2.978,3.066
								C243.9,373.316,244.847,367.593,240.978,365.346z"/>
						</g>
						<g>
							<path style="fill:#145B2C;" d="M232.794,386.902c0,0,2.464-8.355-3.07-10.976
								C229.724,375.926,225.792,384.049,232.794,386.902z"/>
							<path style="fill:#145B2C;" d="M233.09,387.515l-0.469-0.191c-1.97-0.803-3.307-2.082-3.973-3.802
								c-1.366-3.527,0.58-7.621,0.663-7.793l0.197-0.407l0.411,0.195c5.821,2.756,3.418,11.16,3.314,11.516L233.09,387.515z
								 M229.951,376.559c-0.439,1.104-1.431,4.106-0.448,6.641c0.517,1.332,1.518,2.361,2.978,3.066
								C232.873,384.529,233.82,378.805,229.951,376.559z"/>
						</g>
						<g>
							<path style="fill:#145B2C;" d="M220.865,401.372c0,0,2.464-8.355-3.07-10.977
								C217.795,390.395,213.863,398.518,220.865,401.372z"/>
							<path style="fill:#145B2C;" d="M221.162,401.984l-0.469-0.191c-1.97-0.804-3.307-2.083-3.973-3.803
								c-1.366-3.527,0.58-7.62,0.663-7.793l0.196-0.406l0.411,0.194c5.82,2.757,3.419,11.16,3.314,11.515L221.162,401.984z
								 M218.022,391.028c-0.438,1.104-1.431,4.105-0.447,6.641c0.517,1.332,1.518,2.362,2.978,3.067
								C220.944,398.998,221.891,393.274,218.022,391.028z"/>
						</g>
						<g>
							<path style="fill:#145B2C;" d="M211.647,414.934c0,0-0.858-8.674-6.97-9.05C204.677,405.885,204.087,414.889,211.647,414.934
								z"/>
							<path style="fill:#145B2C;" d="M212.152,415.392l-0.506-0.003c-2.127-0.013-3.846-0.703-5.11-2.052
								c-2.592-2.767-2.328-7.292-2.316-7.483l0.03-0.45l0.454,0.027c6.428,0.395,7.361,9.09,7.398,9.459L212.152,415.392z
								 M205.125,406.388c0.008,1.188,0.217,4.345,2.082,6.332c0.979,1.045,2.294,1.628,3.911,1.739
								C210.828,412.7,209.553,407.035,205.125,406.388z"/>
						</g>
						<g>
							<path style="fill:#145B2C;" d="M203.432,432.036c0,0-3.33-8.069-9.288-6.679
								C194.144,425.357,196.185,434.157,203.432,432.036z"/>
							<path style="fill:#145B2C;" d="M204.047,432.331l-0.485,0.142c-2.04,0.597-3.884,0.427-5.484-0.505
								c-3.281-1.911-4.336-6.323-4.38-6.51l-0.102-0.44l0.442-0.103c6.265-1.461,9.674,6.606,9.817,6.951L204.047,432.331z
								 M194.719,425.711c0.352,1.136,1.465,4.103,3.824,5.475c1.24,0.72,2.666,0.904,4.246,0.547
								C202.002,430.13,199.143,425.063,194.719,425.711z"/>
						</g>
						<g>
							<path style="fill:#145B2C;" d="M197.331,450.393c0,0-1.092-8.649-7.211-8.861
								C190.119,441.532,189.773,450.55,197.331,450.393z"/>
							<path style="fill:#145B2C;" d="M197.848,450.837l-0.506,0.011c-2.127,0.043-3.863-0.601-5.163-1.916
								c-2.665-2.697-2.524-7.227-2.516-7.418l0.018-0.452l0.454,0.016c6.436,0.223,7.604,8.891,7.651,9.259L197.848,450.837z
								 M190.581,442.023c0.041,1.187,0.335,4.338,2.252,6.275c1.007,1.018,2.336,1.567,3.957,1.634
								C196.452,448.182,195.024,442.552,190.581,442.023z"/>
						</g>
						<g>
							<path style="fill:#145B2C;" d="M243.774,376.098c0,0,8.022,3.524,11.329-1.593
								C255.102,374.505,247.496,369.563,243.774,376.098z"/>
							<path style="fill:#145B2C;" d="M252.679,377.138c-3.829,1.639-8.822-0.506-9.089-0.624l-0.464-0.203l0.249-0.438
								c1.047-1.838,2.489-2.989,4.289-3.422c3.688-0.886,7.525,1.569,7.688,1.674l0.381,0.247l-0.245,0.38
								C254.728,375.927,253.749,376.68,252.679,377.138z M244.448,375.873c1.683,0.614,7.27,2.297,9.996-1.226
								c-1.045-0.577-3.915-1.949-6.566-1.31C246.489,373.672,245.333,374.525,244.448,375.873z"/>
						</g>
						<g>
							<path style="fill:#145B2C;" d="M232.365,387.441c0,0,6.133,6.238,11.122,2.72
								C243.486,390.161,238.27,382.762,232.365,387.441z"/>
							<path style="fill:#145B2C;" d="M242.547,391.209c-4.947,2.117-10.267-3.205-10.509-3.45l-0.354-0.361l0.396-0.313
								c1.663-1.316,3.435-1.849,5.266-1.584c3.759,0.545,6.405,4.242,6.515,4.399l0.262,0.371l-0.37,0.261
								C243.355,390.812,242.952,391.036,242.547,391.209z M233.074,387.482c1.335,1.192,5.892,4.815,9.747,2.566
								c-0.755-0.923-2.906-3.257-5.609-3.647C235.793,386.196,234.405,386.559,233.074,387.482z"/>
						</g>
						<g>
							<path style="fill:#145B2C;" d="M220.796,401.877c0,0,8.291,2.834,11.149-2.545
								C231.944,399.331,223.945,395.049,220.796,401.877z"/>
							<path style="fill:#145B2C;" d="M229.232,402.41c-3.622,1.55-8.32-0.013-8.584-0.104l-0.479-0.164l0.212-0.457
								c0.886-1.92,2.219-3.191,3.98-3.773c3.598-1.195,7.63,0.927,7.8,1.018l0.4,0.214l-0.211,0.399
								C231.583,400.986,230.47,401.881,229.232,402.41z M221.447,401.595c1.729,0.47,7.439,1.673,9.853-2.068
								c-1.09-0.487-4.066-1.612-6.651-0.751C223.283,399.23,222.215,400.176,221.447,401.595z"/>
						</g>
						<g>
							<path style="fill:#145B2C;" d="M211.69,415.264c0,0,6.94,5.336,11.389,1.163C223.079,416.426,216.885,409.814,211.69,415.264
								z"/>
							<path style="fill:#145B2C;" d="M221.541,417.981c-4.479,1.917-9.871-2.158-10.129-2.357l-0.402-0.308l0.348-0.365
								c1.463-1.533,3.143-2.304,4.994-2.295c3.796,0.022,6.931,3.321,7.062,3.461l0.31,0.331l-0.33,0.31
								C222.806,417.308,222.183,417.706,221.541,417.981z M212.4,415.206c1.486,0.997,6.506,3.965,10.006,1.199
								c-0.876-0.81-3.331-2.826-6.061-2.84C214.909,413.557,213.585,414.111,212.4,415.206z"/>
						</g>
						<g>
							<path style="fill:#145B2C;" d="M203.496,432.542c0,0,6.94,5.336,11.389,1.163
								C214.885,433.705,208.691,427.093,203.496,432.542z"/>
							<path style="fill:#145B2C;" d="M213.348,435.26c-4.479,1.917-9.872-2.159-10.131-2.358l-0.401-0.308l0.348-0.365
								c1.463-1.532,3.143-2.305,4.993-2.294c3.798,0.022,6.932,3.321,7.063,3.461l0.31,0.331l-0.33,0.31
								C214.613,434.587,213.99,434.985,213.348,435.26z M204.206,432.485c1.485,0.997,6.507,3.97,10.006,1.199
								c-0.876-0.809-3.331-2.826-6.061-2.84C206.717,430.837,205.393,431.387,204.206,432.485z"/>
						</g>
						<g>
							<path style="fill:#145B2C;" d="M197.402,450.95c0,0,8.693,1.1,10.39-4.747C207.792,446.203,199.09,443.625,197.402,450.95z"
								/>
							<path style="fill:#145B2C;" d="M204.342,450.55c-3.079,1.318-6.759,0.882-6.997,0.852l-0.502-0.064l0.113-0.49
								c0.475-2.061,1.525-3.576,3.124-4.501c3.268-1.905,7.657-0.635,7.841-0.58l0.436,0.129l-0.126,0.434
								C207.592,448.533,206.061,449.814,204.342,450.55z M197.982,450.543c1.786,0.109,7.62,0.136,9.219-4.018
								c-1.166-0.256-4.312-0.767-6.663,0.61C199.301,447.852,198.443,448.997,197.982,450.543z"/>
						</g>
						<path style="fill:#145B2C;stroke:#145B2C;stroke-miterlimit:10;" d="M194.33,498.041l-0.911,0.074
							c-3.364-39.812,10.424-70.961,22.584-90.081c13.174-20.716,27.342-32.178,27.483-32.292l0.575,0.71
							c-0.141,0.113-14.209,11.5-27.303,32.099C204.683,427.549,190.989,458.496,194.33,498.041z"/>
					</g>
				</g>
				<path style="fill:#145B2C;" d="M212.322,500.023c0,0,35.183-24.69,13.579-37.035c-21.604-12.345-27.776,18.517-27.776,18.517
					s-4.321-58.021-20.986-55.552c-16.665,2.469-10.493,46.293-10.493,46.293s-14.197-22.838-22.838-18.517
					c-8.641,4.321,0,24.073,0,24.073s-14.197-14.197-22.838-4.938c-8.641,9.259,3.703,18.517,3.703,18.517s-57.99,7.64-41.973,8.641
					C92.576,500.64,212.322,500.023,212.322,500.023z"/>
				
					<linearGradient id="SVGID_00000181798028656366416690000001410002232236424353_" gradientUnits="userSpaceOnUse" x1="250.8208" y1="508.5612" x2="276.2875" y2="464.4517">
					<stop  offset="0" style="stop-color:#014554"/>
					<stop  offset="0.987" style="stop-color:#016B54"/>
				</linearGradient>
				<path style="fill:url(#SVGID_00000181798028656366416690000001410002232236424353_);" d="M236.552,500.323
					c0,0-13.422-16.013-10.5-20.25c5-7.25,21.75,12.75,21.75,12.75s-7.75-20.75,0-20.75s16.25,21.25,16.25,21.25s1.25-31,8.5-29.25
					s6,31.25,6,31.25s12.858-21.177,18.25-19c5.572,2.25,0,24,0,24H236.552z"/>
				<g>
					
						<line style="fill:none;stroke:#145B2C;stroke-width:2;stroke-linecap:round;stroke-linejoin:round;stroke-miterlimit:10;" x1="31.553" y1="428.826" x2="31.553" y2="499.188"/>
					<path style="fill:#EF6F18;" d="M18.165,418.265c0,0-3.759,21.123,13.246,21.123s13.604-21.123,13.604-21.123l-7.697,7.876
						l-5.766-7.876l-5.869,8.055L18.165,418.265z"/>
					<g>
						<path style="fill:#145B2C;" d="M31.957,455.908c0,0,12.393,1.96,15.11-6.331C47.067,449.577,34.734,445.503,31.957,455.908z"
							/>
						<path style="fill:#145B2C;" d="M44.67,454.106c-4.706,3.664-12.402,2.511-12.815,2.446l-0.716-0.113l0.186-0.697
							c0.781-2.927,2.359-5.046,4.694-6.302c4.786-2.57,10.994-0.567,11.257-0.481l0.617,0.204l-0.201,0.615
							C47.066,451.682,45.985,453.083,44.67,454.106z M32.809,455.351c2.555,0.237,10.904,0.534,13.397-5.338
							c-1.658-0.419-6.132-1.274-9.571,0.576C34.835,451.559,33.544,453.162,32.809,455.351z"/>
					</g>
					<g>
						<path style="fill:#145B2C;" d="M31.957,479.716c0,0,12.393,1.96,15.11-6.331C47.067,473.385,34.734,469.31,31.957,479.716z"/>
						<path style="fill:#145B2C;" d="M44.67,477.914c-4.706,3.663-12.402,2.511-12.815,2.446l-0.716-0.113l0.186-0.697
							c0.781-2.927,2.359-5.046,4.694-6.302c4.786-2.57,10.994-0.567,11.257-0.481l0.617,0.204l-0.201,0.615
							C47.066,475.49,45.985,476.89,44.67,477.914z M32.809,479.159c2.555,0.237,10.904,0.534,13.397-5.338
							c-1.658-0.419-6.132-1.274-9.571,0.576C34.835,475.367,33.544,476.969,32.809,479.159z"/>
					</g>
					<g>
						<path style="fill:#145B2C;" d="M30.367,468.038c0,0-12.393,1.96-15.11-6.331C15.257,461.707,27.59,457.633,30.367,468.038z"/>
						<path style="fill:#145B2C;" d="M14.633,461.909l-0.201-0.615l0.617-0.204c0.263-0.086,6.471-2.089,11.257,0.481
							c2.334,1.256,3.913,3.375,4.694,6.302l0.186,0.697l-0.716,0.113c-0.413,0.066-8.109,1.218-12.815-2.446
							C16.339,465.213,15.258,463.813,14.633,461.909z M25.689,462.719c-3.439-1.851-7.913-0.995-9.571-0.576
							c2.493,5.872,10.843,5.575,13.397,5.338C28.78,465.292,27.489,463.689,25.689,462.719z"/>
					</g>
				</g>
				<g>
					<path style="fill:#FF7694;" d="M252.807,423.719c0,0-22.295-12.776-16.534-16.534c5.762-3.758,10.676,3.16,10.676,3.16
						s-3.912-5.916,0.096-8.421c4.008-2.505,7.244,3.737,7.244,3.737s2.735-8.287,6.764-6.764
						C265.082,400.422,252.807,423.719,252.807,423.719z"/>
					<path style="fill:#FF7694;" d="M261.408,455.367c0,0-14.823,4.986-16.2,1.169c-1.376-3.817,3.52-5.06,3.52-5.06
						s-9.199-6.296-4.689-10.806C248.548,436.161,261.408,455.367,261.408,455.367z"/>
					<path style="fill:#EF6F18;" d="M262.232,485.732c0,0-23.262,8.852-23.287,2.831c-0.025-6.022,9.384-8.023,9.384-8.023
						s-11.604-6.613-9.157-10.681c2.447-4.068,15.819,3.565,15.819,3.565s-2.454-4.754,1.946-4.665
						C261.336,468.848,262.232,485.732,262.232,485.732z"/>
					<path style="fill:#EF6F18;" d="M271.984,447.128c0,0-15.754-14.641-12.247-18.148c3.507-3.507,5.344,1.67,5.344,1.67
						s0.119-7.133,1.896-7.241c1.778-0.108,4.7,8.827,4.7,8.827s2.088-8.935,5.595-8.768
						C280.78,423.636,271.984,447.128,271.984,447.128z"/>
					<path style="fill:#FF7694;" d="M294.757,458.989c0,0-17.317-17.651-14.645-19.989c2.672-2.338,7.595,2.918,7.595,2.918
						s-2.678-8.841-1.128-9.387c1.55-0.546,3.633,6.882,3.633,6.882s0.882-10.059,2.489-8.994
						c1.607,1.065,4.066,12.301,4.066,12.301s0.213-4.555,3.386-3.386c3.173,1.169-1.048,10.734-1.048,10.734
						s4.953-3.489,6.341-1.768C306.833,450.023,294.757,458.989,294.757,458.989z"/>
					<path style="fill:none;stroke:#33442A;stroke-width:2;stroke-miterlimit:10;" d="M252.807,423.719
						c0,0,25.638,28.644,25.72,77.158"/>
					<path style="fill:none;stroke:#33442A;stroke-width:2;stroke-miterlimit:10;" d="M261.408,455.367
						c0,0,8.709,2.366,12.621,11.287"/>
					<path style="fill:none;stroke:#33442A;stroke-width:2;stroke-miterlimit:10;" d="M262.232,485.732
						c0,0,10.285,5.691,16.254,12.046"/>
					<path style="fill:none;stroke:#33442A;stroke-width:2;stroke-miterlimit:10;" d="M277.814,487.209
						c0,0,15.889-16.581,16.943-28.219"/>
					<path style="fill:none;stroke:#33442A;stroke-width:2;stroke-miterlimit:10;" d="M275.336,471.968
						c0,0-0.123-17.046-3.352-24.84"/>
				</g>
			</g>
			<g>
				<path style="fill:#20A54C;" d="M500.637,403.18c-4.945,3.798-8.911,7.271-8.911,7.271s4.859-4.795,8.911-10.334V387.32
					c-6.721,4.226-16.095,20.467-16.095,20.467s5.828-16.25,1.701-17.696c-4.128-1.445-7.324,17.495-7.324,17.495
					s-0.904-16.548-6.982-34.851c-6.078-18.304-16.913-16.983-19.177-11.503c-2.264,5.479-0.106,7.622,1.711,9.027
					c12.864,9.95,14.522,48.876,14.522,48.876s1.281,3.434-8.394-22.874c-9.676-26.307-23.437-10.998-14.317-1.573
					c10.404,10.751,18.778,31.774,18.778,31.774s-25.577-34.044-28.4-17.337c-0.697,4.125,21.821,15.486,18.823,24.084
					c-2.998,8.598-14.77-15.051-23.376-8.213c-8.606,6.838,19.91,17.901,19.91,17.901s-30.294,1.011-22.315,11.413
					c7.979,10.402,34.213,2.949,27.874-0.882c-6.339-3.831-34.316,4.193-26.716,17.634c1.397,2.471,3.885,4.594,7.015,6.415
					c0,0-30.969,22.453-12.349,22.453c2.239,0,75.11-0.002,75.11-0.002V403.18z"/>
				<g>
					
						<line style="fill:none;stroke:#145B2C;stroke-width:2;stroke-linecap:round;stroke-linejoin:round;stroke-miterlimit:10;" x1="469.919" y1="420.532" x2="469.919" y2="499.592"/>
					<path style="fill:#FF7694;" d="M454.877,408.665c0,0-4.224,23.734,14.884,23.734s15.286-23.734,15.286-23.734l-8.649,8.85
						l-6.479-8.85l-6.595,9.051L454.877,408.665z"/>
					<g>
						<path style="fill:#145B2C;" d="M470.373,450.963c0,0,13.925,2.202,16.978-7.113
							C487.351,443.849,473.493,439.271,470.373,450.963z"/>
						<path style="fill:#145B2C;" d="M484.658,448.938c-5.288,4.116-13.936,2.822-14.399,2.748l-0.805-0.127l0.209-0.783
							c0.877-3.289,2.651-5.67,5.274-7.081c5.377-2.888,12.353-0.637,12.648-0.54l0.694,0.229l-0.226,0.691
							C487.35,446.214,486.135,447.788,484.658,448.938z M471.33,450.336c2.871,0.266,12.253,0.6,15.054-5.998
							c-1.863-0.471-6.89-1.432-10.754,0.648C473.607,446.076,472.156,447.876,471.33,450.336z"/>
					</g>
					<g>
						<path style="fill:#145B2C;" d="M470.373,477.714c0,0,13.925,2.202,16.978-7.114
							C487.351,470.6,473.493,466.022,470.373,477.714z"/>
						<path style="fill:#145B2C;" d="M484.658,475.688c-5.288,4.116-13.936,2.822-14.399,2.748l-0.805-0.127l0.209-0.783
							c0.877-3.289,2.651-5.67,5.274-7.081c5.377-2.888,12.353-0.637,12.648-0.54l0.694,0.229l-0.226,0.691
							C487.35,472.965,486.135,474.538,484.658,475.688z M471.33,477.087c2.871,0.266,12.253,0.6,15.054-5.998
							c-1.863-0.471-6.89-1.432-10.754,0.647C473.607,472.827,472.156,474.627,471.33,477.087z"/>
					</g>
					<g>
						<path style="fill:#145B2C;" d="M468.587,464.592c0,0-13.925,2.202-16.978-7.114
							C451.609,457.479,465.467,452.9,468.587,464.592z"/>
						<path style="fill:#145B2C;" d="M450.908,457.705l-0.226-0.691l0.694-0.229c0.296-0.097,7.271-2.347,12.648,0.54
							c2.623,1.411,4.397,3.792,5.274,7.081l0.209,0.783l-0.805,0.127c-0.464,0.074-9.111,1.368-14.399-2.748
							C452.825,461.417,451.61,459.844,450.908,457.705z M463.33,458.615c-3.865-2.079-8.891-1.118-10.754-0.647
							c2.801,6.598,12.183,6.264,15.054,5.998C466.804,461.506,465.353,459.705,463.33,458.615z"/>
					</g>
				</g>
			</g>
		</g>
		<g>
			<path style="fill:#145B2C;" d="M442.7,499.801l-88.006,0.24c0,0,8.775-80.638,23.01-83.608
				c14.235-2.97-0.77,17.421,10.003,18.575c10.773,1.154,13.466-46.553,33.857-43.859c20.391,2.693-10.773,39.243-1.924,45.398
				c8.849,6.156,9.233-18.467,20.775-14.235c11.542,4.232-16.928,36.55-11.542,38.858c5.386,2.308,21.545-12.311,28.855-5.001
				c7.31,7.31-26.931,24.238-26.931,30.779C430.797,493.489,447.317,487.105,442.7,499.801z"/>
		</g>
		<g>
			
				<linearGradient id="SVGID_00000113346013244775033420000004143509632563598505_" gradientUnits="userSpaceOnUse" x1="348.6528" y1="505.3589" x2="384.9835" y2="442.4323">
				<stop  offset="0" style="stop-color:#014554"/>
				<stop  offset="0.987" style="stop-color:#016B54"/>
			</linearGradient>
			<path style="fill:url(#SVGID_00000113346013244775033420000004143509632563598505_);" d="M346.666,500.006
				c0,0-18.821-2.363-17.831-8.967c0.991-6.604,26.085,2.641,26.085,2.641s-36.322-22.453-32.689-28.067
				c3.632-5.613,26.416,14.859,26.416,14.859s-30.378-37.312-21.793-42.926c8.585-5.613,37.642,48.539,37.642,48.539
				s-27.406-50.52-18.821-53.492c8.585-2.972,24.435,58.115,24.435,58.115s0.991-43.916,5.613-44.246
				c4.623-0.33,5.613,44.907,5.613,44.907s9.576-42.926,16.18-41.605c6.604,1.321-6.604,40.284-6.604,40.284
				s24.435-16.51,29.718-14.859c5.283,1.651-17.5,17.83-17.5,17.83s10.236-5.613,14.859-3.302
				c4.623,2.311-21.793,10.288-21.793,10.288H346.666z"/>
			<path style="fill:#EF6F18;" d="M339.401,438.208c0,0,0.991-14.859-4.293-13.538C329.826,425.99,339.401,438.208,339.401,438.208z
				"/>
			<path style="fill:#EF6F18;" d="M402.344,472.146c0,0,10.347-8.585,7.485-12.548C406.967,455.636,402.344,472.146,402.344,472.146
				z"/>
			<path style="fill:#EF6F18;" d="M400.583,448.811c0,0,4.843-3.963,3.082-7.045C401.904,438.685,400.583,448.811,400.583,448.811z"
				/>
		</g>
	</g>
</g>
</svg>
